<svg width="297" height="194" viewBox="0 0 297 194" fill="none" xmlns="http://www.w3.org/2000/svg">
<g filter="url(#filter0_dii_5_115)">
<path d="M15.6248 14.8121C18.5281 14.8501 21.0847 16.7091 22.011 19.456C22.4967 20.896 22.4894 22.459 21.9903 23.8995L21.9429 24.0363C20.9085 27.0216 18.0749 29.0131 14.9205 28.9718L11.7937 28.9309C8.73576 28.8909 6.03835 26.9445 5.04137 24.0586L4.9913 23.9137C4.43954 22.3166 4.49702 20.5691 5.15273 19.0056C6.24347 16.4047 8.80569 14.7228 11.6208 14.7596L15.6248 14.8121Z" fill="white" fill-opacity="0.69" shape-rendering="crispEdges"/>
<path d="M21.5179 23.738L21.9881 23.8988L21.5179 23.738L21.4705 23.8748C20.507 26.6554 17.8677 28.5104 14.9296 28.4719L11.8028 28.431C8.95482 28.3937 6.44262 26.581 5.5141 23.8933L5.46403 23.7483C4.95237 22.2673 5.00567 20.6468 5.61373 19.1969C6.62519 16.7851 9.0012 15.2254 11.6118 15.2595L15.6157 15.312C18.3077 15.3472 20.6782 17.071 21.5371 19.6179C21.9875 20.9531 21.9807 22.4024 21.5179 23.738Z" stroke="#C5C5C5" shape-rendering="crispEdges"/>
</g>
<g filter="url(#filter1_dii_5_115)">
<path d="M61.64 52.6662C64.5432 52.7042 67.0998 54.5633 68.0262 57.3101C68.5119 58.7502 68.5046 60.3132 68.0055 61.7537L67.958 61.8905C66.9237 64.8758 64.09 66.8673 60.9356 66.826L57.8089 66.785C54.7509 66.745 52.0535 64.7986 51.0565 61.9128L51.0064 61.7678C50.4547 60.1707 50.5122 58.4233 51.1679 56.8597C52.2586 54.2589 54.8208 52.5769 57.636 52.6138L61.64 52.6662Z" fill="white" fill-opacity="0.69" shape-rendering="crispEdges"/>
<path d="M67.5331 61.5922L68.0032 61.7529L67.5331 61.5922L67.4856 61.729C66.5222 64.5096 63.8829 66.3645 60.9447 66.3261L57.818 66.2851C54.97 66.2478 52.4578 64.4351 51.5292 61.7474L51.4792 61.6025C50.9675 60.1214 51.0208 58.501 51.6289 57.0511C52.6403 54.6392 55.0163 53.0795 57.6269 53.1137L61.6309 53.1661C64.3228 53.2014 66.6933 54.9251 67.5523 57.472C68.0026 58.8073 67.9958 60.2565 67.5331 61.5922Z" stroke="#C5C5C5" shape-rendering="crispEdges"/>
</g>
<g filter="url(#filter2_dii_5_115)">
<path d="M93.7933 22.479C96.6965 22.5171 99.2531 24.3761 100.18 27.1229C100.665 28.563 100.658 30.126 100.159 31.5665L100.111 31.7033C99.077 34.6886 96.2434 36.6801 93.089 36.6388L89.9622 36.5979C86.9042 36.5579 84.2068 34.6115 83.2098 31.7256L83.1598 31.5807C82.608 29.9836 82.6655 28.2361 83.3212 26.6726C84.4119 24.0717 86.9742 22.3898 89.7893 22.4266L93.7933 22.479Z" fill="white" fill-opacity="0.69" shape-rendering="crispEdges"/>
<path d="M99.6864 31.405L100.157 31.5658L99.6864 31.405L99.639 31.5418C98.6755 34.3224 96.0362 36.1774 93.0981 36.1389L89.9713 36.098C87.1233 36.0607 84.6111 34.248 83.6826 31.5603L83.6325 31.4153C83.1208 29.9343 83.1741 28.3138 83.7822 26.8639C84.7936 24.4521 87.1697 22.8924 89.7802 22.9265L93.7842 22.979C96.4761 23.0142 98.8466 24.738 99.7056 27.2849C100.156 28.6201 100.149 30.0694 99.6864 31.405Z" stroke="#C5C5C5" shape-rendering="crispEdges"/>
</g>
<g filter="url(#filter3_dii_5_115)">
<path d="M146.896 0.148845C149.799 0.186858 152.356 2.04593 153.282 4.79275C153.768 6.23283 153.76 7.79584 153.261 9.23632L153.214 9.37313C152.18 12.3584 149.346 14.3499 146.192 14.3086L143.065 14.2677C140.007 14.2277 137.309 12.2813 136.312 9.39543L136.262 9.25049C135.711 7.65335 135.768 5.90592 136.424 4.34236C137.514 1.74152 140.077 0.0595607 142.892 0.0964198L146.896 0.148845Z" fill="white" fill-opacity="0.69" shape-rendering="crispEdges"/>
<path d="M152.789 9.0748L153.259 9.23556L152.789 9.0748L152.742 9.21162C151.778 11.9922 149.139 13.8472 146.201 13.8087L143.074 13.7678C140.226 13.7305 137.714 11.9178 136.785 9.23006L136.735 9.08511C136.223 7.60406 136.277 5.98362 136.885 4.5337C137.896 2.12188 140.272 0.562157 142.883 0.596337L146.887 0.648762C149.579 0.684008 151.949 2.40777 152.808 4.95466C153.258 6.28992 153.252 7.73917 152.789 9.0748Z" stroke="#C5C5C5" shape-rendering="crispEdges"/>
</g>
<g filter="url(#filter4_dii_5_115)">
<path d="M153.229 39.4335C156.132 39.4715 158.689 41.3306 159.615 44.0774C160.101 45.5174 160.093 47.0805 159.594 48.5209L159.547 48.6578C158.513 51.643 155.679 53.6346 152.525 53.5933L149.398 53.5523C146.34 53.5123 143.642 51.5659 142.645 48.6801L142.595 48.5351C142.044 46.938 142.101 45.1905 142.757 43.627C143.847 41.0261 146.41 39.3442 149.225 39.381L153.229 39.4335Z" fill="white" fill-opacity="0.69" shape-rendering="crispEdges"/>
<path d="M159.122 48.3594L159.592 48.5202L159.122 48.3594L159.075 48.4962C158.111 51.2768 155.472 53.1318 152.534 53.0933L149.407 53.0524C146.559 53.0151 144.047 51.2024 143.118 48.5147L143.068 48.3697C142.556 46.8887 142.61 45.2682 143.218 43.8183C144.229 41.4065 146.605 39.8468 149.216 39.881L153.22 39.9334C155.912 39.9686 158.282 41.6924 159.141 44.2393C159.591 45.5745 159.585 47.0238 159.122 48.3594Z" stroke="#C5C5C5" shape-rendering="crispEdges"/>
</g>
<g filter="url(#filter5_dii_5_115)">
<path d="M180.511 86.9885C183.414 87.0265 185.971 88.8856 186.897 91.6324C187.383 93.0725 187.376 94.6355 186.877 96.076L186.829 96.2128C185.795 99.1981 182.961 101.19 179.807 101.148L176.68 101.107C173.622 101.067 170.925 99.121 169.928 96.2351L169.878 96.0902C169.326 94.493 169.383 92.7456 170.039 91.182C171.13 88.5812 173.692 86.8992 176.507 86.9361L180.511 86.9885Z" fill="white" fill-opacity="0.69" shape-rendering="crispEdges"/>
<path d="M180.502 87.4884C183.194 87.5237 185.564 89.2474 186.423 91.7943C186.874 93.1296 186.867 94.5788 186.404 95.9145L186.357 96.0513C185.393 98.8319 182.754 100.687 179.816 100.648L176.689 100.607C173.841 100.57 171.329 98.7574 170.4 96.0697L170.35 95.9248C169.839 94.4437 169.892 92.8233 170.5 91.3734C171.511 88.9616 173.887 87.4018 176.498 87.436L180.502 87.4884Z" stroke="#C5C5C5" shape-rendering="crispEdges"/>
</g>
<g filter="url(#filter6_dii_5_115)">
<path d="M285.742 24.5467C288.645 24.5847 291.201 26.4437 292.128 29.1906C292.613 30.6306 292.606 32.1937 292.107 33.6341L292.06 33.7709C291.025 36.7562 288.192 38.7477 285.037 38.7064L281.91 38.6655C278.852 38.6255 276.155 36.6791 275.158 33.7932L275.108 33.6483C274.556 32.0512 274.614 30.3037 275.269 28.7402C276.36 26.1393 278.922 24.4574 281.738 24.4942L285.742 24.5467Z" fill="white" fill-opacity="0.69" shape-rendering="crispEdges"/>
<path d="M291.635 33.4726L292.105 33.6334L291.635 33.4726L291.587 33.6094C290.624 36.39 287.984 38.245 285.046 38.2065L281.92 38.1656C279.072 38.1283 276.559 36.3156 275.631 33.6279L275.581 33.4829C275.069 32.0019 275.122 30.3814 275.73 28.9315C276.742 26.5197 279.118 24.96 281.728 24.9941L285.732 25.0466C288.424 25.0818 290.795 26.8056 291.654 29.3525C292.104 30.6877 292.097 32.137 291.635 33.4726Z" stroke="#C5C5C5" shape-rendering="crispEdges"/>
</g>
<g filter="url(#filter7_dii_5_115)">
<path d="M217.466 12.6729C220.815 12.7168 223.771 14.8415 224.875 17.9975L225.79 20.6148C226.393 22.3407 226.385 24.2244 225.767 25.9513L224.577 29.2737C223.419 32.5082 220.331 34.6549 216.901 34.61L206.514 34.474C203.187 34.4305 200.245 32.3328 199.125 29.2061L197.928 25.8645C197.244 23.9544 197.314 21.8518 198.124 19.9838L199.252 17.3811C200.543 14.4043 203.497 12.49 206.736 12.5324L217.466 12.6729Z" fill="white" fill-opacity="0.69" shape-rendering="crispEdges"/>
<path d="M217.457 13.1729C220.596 13.214 223.368 15.2059 224.402 18.1646L225.318 20.7819C225.883 22.4 225.876 24.1659 225.296 25.7849L224.107 29.1073C223.021 32.1397 220.126 34.1522 216.91 34.1101L206.523 33.9741C203.404 33.9333 200.646 31.9668 199.596 29.0354L198.399 25.6938C197.758 23.9031 197.823 21.9319 198.583 20.1806L199.711 17.578C200.921 14.7872 203.691 12.9926 206.727 13.0324L217.457 13.1729Z" stroke="#C5C5C5" shape-rendering="crispEdges"/>
</g>
<g filter="url(#filter8_dii_5_115)">
<path d="M104.896 100.684C108.266 100.728 111.236 102.879 112.323 106.063L112.551 106.73C113.13 108.424 113.121 110.266 112.527 111.961L112.101 113.177C110.958 116.438 107.857 118.61 104.407 118.565L98.4995 118.487C95.1513 118.444 92.1952 116.319 91.0914 113.164L90.6659 111.948C90.0098 110.072 90.0777 108.016 90.8564 106.181L91.1416 105.508C92.4177 102.501 95.3885 100.559 98.6499 100.602L104.896 100.684Z" fill="white" fill-opacity="0.69" shape-rendering="crispEdges"/>
<path d="M104.887 101.184C108.046 101.225 110.831 103.242 111.85 106.227L112.078 106.894C112.62 108.482 112.612 110.209 112.056 111.797L111.629 113.014C110.558 116.071 107.65 118.107 104.416 118.065L98.5085 117.988C95.3696 117.946 92.5983 115.955 91.5635 112.997L91.138 111.781C90.5229 110.022 90.5866 108.095 91.3166 106.374L91.6018 105.702C92.7981 102.882 95.5833 101.062 98.6409 101.102L104.887 101.184Z" stroke="#C5C5C5" shape-rendering="crispEdges"/>
</g>
<g filter="url(#filter9_dii_5_115)">
<path d="M262.926 58.307C266.259 58.3506 269.206 60.4565 270.321 63.5922L272.777 70.5002C273.399 72.2489 273.391 74.1627 272.754 75.9127L269.86 83.874C268.691 87.0894 265.613 89.2183 262.197 89.1735L242.445 88.9149C239.134 88.8716 236.203 86.793 235.071 83.6869L232.149 75.6617C231.444 73.7268 231.516 71.5907 232.348 69.6995L235.363 62.8509C236.664 59.8965 239.607 58.0016 242.829 58.0438L262.926 58.307Z" fill="white" fill-opacity="0.69" shape-rendering="crispEdges"/>
<path d="M262.917 58.8069C266.042 58.8478 268.804 60.8221 269.849 63.7618L272.306 70.6698C272.888 72.3092 272.881 74.1034 272.285 75.744L269.39 83.7053C268.294 86.7197 265.408 88.7156 262.206 88.6736L242.455 88.415C239.35 88.3744 236.602 86.4257 235.541 83.5137L232.619 75.4885C231.958 73.6745 232.025 71.672 232.806 69.8989L235.821 63.0504C237.04 60.2806 239.799 58.5042 242.819 58.5438L262.917 58.8069Z" stroke="#C5C5C5" shape-rendering="crispEdges"/>
</g>
<path d="M21.2716 21.4074L46.8433 21.4074C53.9802 21.4074 59.7585 27.1856 59.7584 34.3224V34.3224L59.7584 52.5173" stroke="white"/>
<path d="M96.5105 29.1381L134.997 29.1381L161.892 32.1106C165.219 32.4783 168.587 32.1458 171.78 31.1344L199.578 22.3302" stroke="white"/>
<path d="M154.293 7.32077L192.78 7.32077L228.727 7.32077C241.964 7.32077 252.681 18.0376 252.681 31.2741L252.681 57.8931" stroke="white"/>
<path d="M160.627 47.002L199.114 47.002L224.764 49.837C228.887 50.2927 233.059 49.6717 236.874 48.0348L275.578 31.4277" stroke="white"/>
<path d="M151.074 53.8581L151.074 65.1305C151.074 68.9792 149.404 72.789 146.409 75.7707L112.861 109.17" stroke="white"/>
<path d="M144.041 14.4733L144.041 18.2511C144.041 20.3011 142.162 21.9167 139.778 21.9167V21.9167C137.297 21.9167 135.384 23.6602 135.522 25.7948L137.287 53.1846C137.518 56.7779 134.297 59.7128 130.122 59.7128L69.1613 59.7128" stroke="white"/>
<path d="M60.314 66.7921L60.314 78.3119C60.314 86.9727 67.3406 93.6711 76.4257 93.6711L168.955 93.6711" stroke="white"/>
<path d="M211.902 34.076L211.902 58.089C211.902 60.6841 214.421 62.8554 217.432 62.8554V62.8554C220.444 62.8554 222.963 65.0267 222.963 67.6219L222.963 86.9613C222.963 91.1729 227.052 94.6966 231.939 94.6966L263.466 94.6966C266.612 94.6966 269.245 96.9655 269.245 99.6773V99.6773C269.245 102.213 266.931 104.208 263.988 104.208L202.051 104.208C198.213 104.208 195.194 106.809 195.194 110.117V110.117C195.194 113.654 198.628 116.613 202.732 116.613L205.705 116.613C210.592 116.613 214.681 120.137 214.681 124.349L214.681 129.013C214.681 132.951 211.087 136.049 206.516 136.049L83.3498 136.049C78.4629 136.049 74.3741 132.525 74.3741 128.314L74.3741 116.787C74.3741 112.848 77.9684 109.751 82.5388 109.751L89.6201 109.751" stroke="white"/>
<defs>
<filter id="filter0_dii_5_115" x="0.615723" y="14.759" width="25.7544" height="22.2134" filterUnits="userSpaceOnUse" color-interpolation-filters="sRGB">
<feFlood flood-opacity="0" result="BackgroundImageFix"/>
<feColorMatrix in="SourceAlpha" type="matrix" values="0 0 0 0 0 0 0 0 0 0 0 0 0 0 0 0 0 0 127 0" result="hardAlpha"/>
<feOffset dy="4"/>
<feGaussianBlur stdDeviation="2"/>
<feComposite in2="hardAlpha" operator="out"/>
<feColorMatrix type="matrix" values="0 0 0 0 0 0 0 0 0 0 0 0 0 0 0 0 0 0 0.25 0"/>
<feBlend mode="normal" in2="BackgroundImageFix" result="effect1_dropShadow_5_115"/>
<feBlend mode="normal" in="SourceGraphic" in2="effect1_dropShadow_5_115" result="shape"/>
<feColorMatrix in="SourceAlpha" type="matrix" values="0 0 0 0 0 0 0 0 0 0 0 0 0 0 0 0 0 0 127 0" result="hardAlpha"/>
<feOffset dy="4"/>
<feGaussianBlur stdDeviation="2"/>
<feComposite in2="hardAlpha" operator="arithmetic" k2="-1" k3="1"/>
<feColorMatrix type="matrix" values="0 0 0 0 0 0 0 0 0 0 0 0 0 0 0 0 0 0 0.25 0"/>
<feBlend mode="normal" in2="shape" result="effect2_innerShadow_5_115"/>
<feColorMatrix in="SourceAlpha" type="matrix" values="0 0 0 0 0 0 0 0 0 0 0 0 0 0 0 0 0 0 127 0" result="hardAlpha"/>
<feOffset dy="4"/>
<feGaussianBlur stdDeviation="2"/>
<feComposite in2="hardAlpha" operator="arithmetic" k2="-1" k3="1"/>
<feColorMatrix type="matrix" values="0 0 0 0 0 0 0 0 0 0 0 0 0 0 0 0 0 0 0.25 0"/>
<feBlend mode="normal" in2="effect2_innerShadow_5_115" result="effect3_innerShadow_5_115"/>
</filter>
<filter id="filter1_dii_5_115" x="46.6309" y="52.6132" width="25.7544" height="22.2134" filterUnits="userSpaceOnUse" color-interpolation-filters="sRGB">
<feFlood flood-opacity="0" result="BackgroundImageFix"/>
<feColorMatrix in="SourceAlpha" type="matrix" values="0 0 0 0 0 0 0 0 0 0 0 0 0 0 0 0 0 0 127 0" result="hardAlpha"/>
<feOffset dy="4"/>
<feGaussianBlur stdDeviation="2"/>
<feComposite in2="hardAlpha" operator="out"/>
<feColorMatrix type="matrix" values="0 0 0 0 0 0 0 0 0 0 0 0 0 0 0 0 0 0 0.25 0"/>
<feBlend mode="normal" in2="BackgroundImageFix" result="effect1_dropShadow_5_115"/>
<feBlend mode="normal" in="SourceGraphic" in2="effect1_dropShadow_5_115" result="shape"/>
<feColorMatrix in="SourceAlpha" type="matrix" values="0 0 0 0 0 0 0 0 0 0 0 0 0 0 0 0 0 0 127 0" result="hardAlpha"/>
<feOffset dy="4"/>
<feGaussianBlur stdDeviation="2"/>
<feComposite in2="hardAlpha" operator="arithmetic" k2="-1" k3="1"/>
<feColorMatrix type="matrix" values="0 0 0 0 0 0 0 0 0 0 0 0 0 0 0 0 0 0 0.25 0"/>
<feBlend mode="normal" in2="shape" result="effect2_innerShadow_5_115"/>
<feColorMatrix in="SourceAlpha" type="matrix" values="0 0 0 0 0 0 0 0 0 0 0 0 0 0 0 0 0 0 127 0" result="hardAlpha"/>
<feOffset dy="4"/>
<feGaussianBlur stdDeviation="2"/>
<feComposite in2="hardAlpha" operator="arithmetic" k2="-1" k3="1"/>
<feColorMatrix type="matrix" values="0 0 0 0 0 0 0 0 0 0 0 0 0 0 0 0 0 0 0.25 0"/>
<feBlend mode="normal" in2="effect2_innerShadow_5_115" result="effect3_innerShadow_5_115"/>
</filter>
<filter id="filter2_dii_5_115" x="78.7842" y="22.426" width="25.7544" height="22.2134" filterUnits="userSpaceOnUse" color-interpolation-filters="sRGB">
<feFlood flood-opacity="0" result="BackgroundImageFix"/>
<feColorMatrix in="SourceAlpha" type="matrix" values="0 0 0 0 0 0 0 0 0 0 0 0 0 0 0 0 0 0 127 0" result="hardAlpha"/>
<feOffset dy="4"/>
<feGaussianBlur stdDeviation="2"/>
<feComposite in2="hardAlpha" operator="out"/>
<feColorMatrix type="matrix" values="0 0 0 0 0 0 0 0 0 0 0 0 0 0 0 0 0 0 0.25 0"/>
<feBlend mode="normal" in2="BackgroundImageFix" result="effect1_dropShadow_5_115"/>
<feBlend mode="normal" in="SourceGraphic" in2="effect1_dropShadow_5_115" result="shape"/>
<feColorMatrix in="SourceAlpha" type="matrix" values="0 0 0 0 0 0 0 0 0 0 0 0 0 0 0 0 0 0 127 0" result="hardAlpha"/>
<feOffset dy="4"/>
<feGaussianBlur stdDeviation="2"/>
<feComposite in2="hardAlpha" operator="arithmetic" k2="-1" k3="1"/>
<feColorMatrix type="matrix" values="0 0 0 0 0 0 0 0 0 0 0 0 0 0 0 0 0 0 0.25 0"/>
<feBlend mode="normal" in2="shape" result="effect2_innerShadow_5_115"/>
<feColorMatrix in="SourceAlpha" type="matrix" values="0 0 0 0 0 0 0 0 0 0 0 0 0 0 0 0 0 0 127 0" result="hardAlpha"/>
<feOffset dy="4"/>
<feGaussianBlur stdDeviation="2"/>
<feComposite in2="hardAlpha" operator="arithmetic" k2="-1" k3="1"/>
<feColorMatrix type="matrix" values="0 0 0 0 0 0 0 0 0 0 0 0 0 0 0 0 0 0 0.25 0"/>
<feBlend mode="normal" in2="effect2_innerShadow_5_115" result="effect3_innerShadow_5_115"/>
</filter>
<filter id="filter3_dii_5_115" x="131.887" y="0.0958252" width="25.7539" height="22.2134" filterUnits="userSpaceOnUse" color-interpolation-filters="sRGB">
<feFlood flood-opacity="0" result="BackgroundImageFix"/>
<feColorMatrix in="SourceAlpha" type="matrix" values="0 0 0 0 0 0 0 0 0 0 0 0 0 0 0 0 0 0 127 0" result="hardAlpha"/>
<feOffset dy="4"/>
<feGaussianBlur stdDeviation="2"/>
<feComposite in2="hardAlpha" operator="out"/>
<feColorMatrix type="matrix" values="0 0 0 0 0 0 0 0 0 0 0 0 0 0 0 0 0 0 0.25 0"/>
<feBlend mode="normal" in2="BackgroundImageFix" result="effect1_dropShadow_5_115"/>
<feBlend mode="normal" in="SourceGraphic" in2="effect1_dropShadow_5_115" result="shape"/>
<feColorMatrix in="SourceAlpha" type="matrix" values="0 0 0 0 0 0 0 0 0 0 0 0 0 0 0 0 0 0 127 0" result="hardAlpha"/>
<feOffset dy="4"/>
<feGaussianBlur stdDeviation="2"/>
<feComposite in2="hardAlpha" operator="arithmetic" k2="-1" k3="1"/>
<feColorMatrix type="matrix" values="0 0 0 0 0 0 0 0 0 0 0 0 0 0 0 0 0 0 0.25 0"/>
<feBlend mode="normal" in2="shape" result="effect2_innerShadow_5_115"/>
<feColorMatrix in="SourceAlpha" type="matrix" values="0 0 0 0 0 0 0 0 0 0 0 0 0 0 0 0 0 0 127 0" result="hardAlpha"/>
<feOffset dy="4"/>
<feGaussianBlur stdDeviation="2"/>
<feComposite in2="hardAlpha" operator="arithmetic" k2="-1" k3="1"/>
<feColorMatrix type="matrix" values="0 0 0 0 0 0 0 0 0 0 0 0 0 0 0 0 0 0 0.25 0"/>
<feBlend mode="normal" in2="effect2_innerShadow_5_115" result="effect3_innerShadow_5_115"/>
</filter>
<filter id="filter4_dii_5_115" x="138.22" y="39.3805" width="25.7539" height="22.2134" filterUnits="userSpaceOnUse" color-interpolation-filters="sRGB">
<feFlood flood-opacity="0" result="BackgroundImageFix"/>
<feColorMatrix in="SourceAlpha" type="matrix" values="0 0 0 0 0 0 0 0 0 0 0 0 0 0 0 0 0 0 127 0" result="hardAlpha"/>
<feOffset dy="4"/>
<feGaussianBlur stdDeviation="2"/>
<feComposite in2="hardAlpha" operator="out"/>
<feColorMatrix type="matrix" values="0 0 0 0 0 0 0 0 0 0 0 0 0 0 0 0 0 0 0.25 0"/>
<feBlend mode="normal" in2="BackgroundImageFix" result="effect1_dropShadow_5_115"/>
<feBlend mode="normal" in="SourceGraphic" in2="effect1_dropShadow_5_115" result="shape"/>
<feColorMatrix in="SourceAlpha" type="matrix" values="0 0 0 0 0 0 0 0 0 0 0 0 0 0 0 0 0 0 127 0" result="hardAlpha"/>
<feOffset dy="4"/>
<feGaussianBlur stdDeviation="2"/>
<feComposite in2="hardAlpha" operator="arithmetic" k2="-1" k3="1"/>
<feColorMatrix type="matrix" values="0 0 0 0 0 0 0 0 0 0 0 0 0 0 0 0 0 0 0.25 0"/>
<feBlend mode="normal" in2="shape" result="effect2_innerShadow_5_115"/>
<feColorMatrix in="SourceAlpha" type="matrix" values="0 0 0 0 0 0 0 0 0 0 0 0 0 0 0 0 0 0 127 0" result="hardAlpha"/>
<feOffset dy="4"/>
<feGaussianBlur stdDeviation="2"/>
<feComposite in2="hardAlpha" operator="arithmetic" k2="-1" k3="1"/>
<feColorMatrix type="matrix" values="0 0 0 0 0 0 0 0 0 0 0 0 0 0 0 0 0 0 0.25 0"/>
<feBlend mode="normal" in2="effect2_innerShadow_5_115" result="effect3_innerShadow_5_115"/>
</filter>
<filter id="filter5_dii_5_115" x="165.502" y="86.9355" width="25.7539" height="22.2134" filterUnits="userSpaceOnUse" color-interpolation-filters="sRGB">
<feFlood flood-opacity="0" result="BackgroundImageFix"/>
<feColorMatrix in="SourceAlpha" type="matrix" values="0 0 0 0 0 0 0 0 0 0 0 0 0 0 0 0 0 0 127 0" result="hardAlpha"/>
<feOffset dy="4"/>
<feGaussianBlur stdDeviation="2"/>
<feComposite in2="hardAlpha" operator="out"/>
<feColorMatrix type="matrix" values="0 0 0 0 0 0 0 0 0 0 0 0 0 0 0 0 0 0 0.25 0"/>
<feBlend mode="normal" in2="BackgroundImageFix" result="effect1_dropShadow_5_115"/>
<feBlend mode="normal" in="SourceGraphic" in2="effect1_dropShadow_5_115" result="shape"/>
<feColorMatrix in="SourceAlpha" type="matrix" values="0 0 0 0 0 0 0 0 0 0 0 0 0 0 0 0 0 0 127 0" result="hardAlpha"/>
<feOffset dy="4"/>
<feGaussianBlur stdDeviation="2"/>
<feComposite in2="hardAlpha" operator="arithmetic" k2="-1" k3="1"/>
<feColorMatrix type="matrix" values="0 0 0 0 0 0 0 0 0 0 0 0 0 0 0 0 0 0 0.25 0"/>
<feBlend mode="normal" in2="shape" result="effect2_innerShadow_5_115"/>
<feColorMatrix in="SourceAlpha" type="matrix" values="0 0 0 0 0 0 0 0 0 0 0 0 0 0 0 0 0 0 127 0" result="hardAlpha"/>
<feOffset dy="4"/>
<feGaussianBlur stdDeviation="2"/>
<feComposite in2="hardAlpha" operator="arithmetic" k2="-1" k3="1"/>
<feColorMatrix type="matrix" values="0 0 0 0 0 0 0 0 0 0 0 0 0 0 0 0 0 0 0.25 0"/>
<feBlend mode="normal" in2="effect2_innerShadow_5_115" result="effect3_innerShadow_5_115"/>
</filter>
<filter id="filter6_dii_5_115" x="270.732" y="24.4936" width="25.7539" height="22.2134" filterUnits="userSpaceOnUse" color-interpolation-filters="sRGB">
<feFlood flood-opacity="0" result="BackgroundImageFix"/>
<feColorMatrix in="SourceAlpha" type="matrix" values="0 0 0 0 0 0 0 0 0 0 0 0 0 0 0 0 0 0 127 0" result="hardAlpha"/>
<feOffset dy="4"/>
<feGaussianBlur stdDeviation="2"/>
<feComposite in2="hardAlpha" operator="out"/>
<feColorMatrix type="matrix" values="0 0 0 0 0 0 0 0 0 0 0 0 0 0 0 0 0 0 0.25 0"/>
<feBlend mode="normal" in2="BackgroundImageFix" result="effect1_dropShadow_5_115"/>
<feBlend mode="normal" in="SourceGraphic" in2="effect1_dropShadow_5_115" result="shape"/>
<feColorMatrix in="SourceAlpha" type="matrix" values="0 0 0 0 0 0 0 0 0 0 0 0 0 0 0 0 0 0 127 0" result="hardAlpha"/>
<feOffset dy="4"/>
<feGaussianBlur stdDeviation="2"/>
<feComposite in2="hardAlpha" operator="arithmetic" k2="-1" k3="1"/>
<feColorMatrix type="matrix" values="0 0 0 0 0 0 0 0 0 0 0 0 0 0 0 0 0 0 0.25 0"/>
<feBlend mode="normal" in2="shape" result="effect2_innerShadow_5_115"/>
<feColorMatrix in="SourceAlpha" type="matrix" values="0 0 0 0 0 0 0 0 0 0 0 0 0 0 0 0 0 0 127 0" result="hardAlpha"/>
<feOffset dy="4"/>
<feGaussianBlur stdDeviation="2"/>
<feComposite in2="hardAlpha" operator="arithmetic" k2="-1" k3="1"/>
<feColorMatrix type="matrix" values="0 0 0 0 0 0 0 0 0 0 0 0 0 0 0 0 0 0 0.25 0"/>
<feBlend mode="normal" in2="effect2_innerShadow_5_115" result="effect3_innerShadow_5_115"/>
</filter>
<filter id="filter7_dii_5_115" x="193.461" y="12.5318" width="36.7754" height="30.0789" filterUnits="userSpaceOnUse" color-interpolation-filters="sRGB">
<feFlood flood-opacity="0" result="BackgroundImageFix"/>
<feColorMatrix in="SourceAlpha" type="matrix" values="0 0 0 0 0 0 0 0 0 0 0 0 0 0 0 0 0 0 127 0" result="hardAlpha"/>
<feOffset dy="4"/>
<feGaussianBlur stdDeviation="2"/>
<feComposite in2="hardAlpha" operator="out"/>
<feColorMatrix type="matrix" values="0 0 0 0 0 0 0 0 0 0 0 0 0 0 0 0 0 0 0.25 0"/>
<feBlend mode="normal" in2="BackgroundImageFix" result="effect1_dropShadow_5_115"/>
<feBlend mode="normal" in="SourceGraphic" in2="effect1_dropShadow_5_115" result="shape"/>
<feColorMatrix in="SourceAlpha" type="matrix" values="0 0 0 0 0 0 0 0 0 0 0 0 0 0 0 0 0 0 127 0" result="hardAlpha"/>
<feOffset dy="4"/>
<feGaussianBlur stdDeviation="2"/>
<feComposite in2="hardAlpha" operator="arithmetic" k2="-1" k3="1"/>
<feColorMatrix type="matrix" values="0 0 0 0 0 0 0 0 0 0 0 0 0 0 0 0 0 0 0.25 0"/>
<feBlend mode="normal" in2="shape" result="effect2_innerShadow_5_115"/>
<feColorMatrix in="SourceAlpha" type="matrix" values="0 0 0 0 0 0 0 0 0 0 0 0 0 0 0 0 0 0 127 0" result="hardAlpha"/>
<feOffset dy="4"/>
<feGaussianBlur stdDeviation="2"/>
<feComposite in2="hardAlpha" operator="arithmetic" k2="-1" k3="1"/>
<feColorMatrix type="matrix" values="0 0 0 0 0 0 0 0 0 0 0 0 0 0 0 0 0 0 0.25 0"/>
<feBlend mode="normal" in2="effect2_innerShadow_5_115" result="effect3_innerShadow_5_115"/>
</filter>
<filter id="filter8_dii_5_115" x="86.2188" y="100.601" width="30.7603" height="25.9644" filterUnits="userSpaceOnUse" color-interpolation-filters="sRGB">
<feFlood flood-opacity="0" result="BackgroundImageFix"/>
<feColorMatrix in="SourceAlpha" type="matrix" values="0 0 0 0 0 0 0 0 0 0 0 0 0 0 0 0 0 0 127 0" result="hardAlpha"/>
<feOffset dy="4"/>
<feGaussianBlur stdDeviation="2"/>
<feComposite in2="hardAlpha" operator="out"/>
<feColorMatrix type="matrix" values="0 0 0 0 0 0 0 0 0 0 0 0 0 0 0 0 0 0 0.25 0"/>
<feBlend mode="normal" in2="BackgroundImageFix" result="effect1_dropShadow_5_115"/>
<feBlend mode="normal" in="SourceGraphic" in2="effect1_dropShadow_5_115" result="shape"/>
<feColorMatrix in="SourceAlpha" type="matrix" values="0 0 0 0 0 0 0 0 0 0 0 0 0 0 0 0 0 0 127 0" result="hardAlpha"/>
<feOffset dy="4"/>
<feGaussianBlur stdDeviation="2"/>
<feComposite in2="hardAlpha" operator="arithmetic" k2="-1" k3="1"/>
<feColorMatrix type="matrix" values="0 0 0 0 0 0 0 0 0 0 0 0 0 0 0 0 0 0 0.25 0"/>
<feBlend mode="normal" in2="shape" result="effect2_innerShadow_5_115"/>
<feColorMatrix in="SourceAlpha" type="matrix" values="0 0 0 0 0 0 0 0 0 0 0 0 0 0 0 0 0 0 127 0" result="hardAlpha"/>
<feOffset dy="4"/>
<feGaussianBlur stdDeviation="2"/>
<feComposite in2="hardAlpha" operator="arithmetic" k2="-1" k3="1"/>
<feColorMatrix type="matrix" values="0 0 0 0 0 0 0 0 0 0 0 0 0 0 0 0 0 0 0.25 0"/>
<feBlend mode="normal" in2="effect2_innerShadow_5_115" result="effect3_innerShadow_5_115"/>
</filter>
<filter id="filter9_dii_5_115" x="227.667" y="58.0432" width="49.5703" height="39.1311" filterUnits="userSpaceOnUse" color-interpolation-filters="sRGB">
<feFlood flood-opacity="0" result="BackgroundImageFix"/>
<feColorMatrix in="SourceAlpha" type="matrix" values="0 0 0 0 0 0 0 0 0 0 0 0 0 0 0 0 0 0 127 0" result="hardAlpha"/>
<feOffset dy="4"/>
<feGaussianBlur stdDeviation="2"/>
<feComposite in2="hardAlpha" operator="out"/>
<feColorMatrix type="matrix" values="0 0 0 0 0 0 0 0 0 0 0 0 0 0 0 0 0 0 0.25 0"/>
<feBlend mode="normal" in2="BackgroundImageFix" result="effect1_dropShadow_5_115"/>
<feBlend mode="normal" in="SourceGraphic" in2="effect1_dropShadow_5_115" result="shape"/>
<feColorMatrix in="SourceAlpha" type="matrix" values="0 0 0 0 0 0 0 0 0 0 0 0 0 0 0 0 0 0 127 0" result="hardAlpha"/>
<feOffset dy="4"/>
<feGaussianBlur stdDeviation="2"/>
<feComposite in2="hardAlpha" operator="arithmetic" k2="-1" k3="1"/>
<feColorMatrix type="matrix" values="0 0 0 0 0 0 0 0 0 0 0 0 0 0 0 0 0 0 0.25 0"/>
<feBlend mode="normal" in2="shape" result="effect2_innerShadow_5_115"/>
<feColorMatrix in="SourceAlpha" type="matrix" values="0 0 0 0 0 0 0 0 0 0 0 0 0 0 0 0 0 0 127 0" result="hardAlpha"/>
<feOffset dy="4"/>
<feGaussianBlur stdDeviation="2"/>
<feComposite in2="hardAlpha" operator="arithmetic" k2="-1" k3="1"/>
<feColorMatrix type="matrix" values="0 0 0 0 0 0 0 0 0 0 0 0 0 0 0 0 0 0 0.25 0"/>
<feBlend mode="normal" in2="effect2_innerShadow_5_115" result="effect3_innerShadow_5_115"/>
</filter>
</defs>
</svg>
