<svg width="214" height="147" viewBox="0 0 214 147" fill="none" xmlns="http://www.w3.org/2000/svg">
<g filter="url(#filter0_dii_5_134)">
<path d="M11.9812 11.2195C14.2161 11.2506 16.1767 12.7061 16.8512 14.8348C17.179 15.8694 17.1743 16.9816 16.8377 18.0155L16.805 18.116C16.0525 20.4275 13.8812 21.9823 11.4526 21.9484L9.86579 21.9263C7.50707 21.8934 5.43438 20.366 4.70683 18.1244L4.6721 18.0174C4.29934 16.869 4.33803 15.6254 4.78154 14.4997C5.57835 12.4774 7.54471 11.1577 9.71586 11.1879L11.9812 11.2195Z" fill="white" fill-opacity="0.69" shape-rendering="crispEdges"/>
<path d="M11.9726 11.7194C13.9927 11.7476 15.7648 13.0631 16.3745 14.9872C16.6708 15.9223 16.6665 16.9276 16.3623 17.8621L16.3296 17.9626C15.6451 20.0651 13.6701 21.4793 11.4611 21.4485L9.87432 21.4264C7.72917 21.3965 5.84415 20.0073 5.18248 17.9687L5.14775 17.8617C4.81077 16.8235 4.84575 15.6993 5.24669 14.6817C5.967 12.8536 7.7446 11.6605 9.70732 11.6878L11.9726 11.7194Z" stroke="#C5C5C5" shape-rendering="crispEdges"/>
</g>
<g filter="url(#filter1_dii_5_134)">
<path d="M44.74 39.9027C46.9749 39.9339 48.9355 41.3894 49.61 43.5181C49.9378 44.5526 49.9331 45.6649 49.5965 46.6987L49.5638 46.7992C48.8113 49.1108 46.6399 50.6655 44.2114 50.6317L42.6246 50.6096C40.2659 50.5767 38.1932 49.0492 37.4656 46.8077L37.4309 46.7007C37.0581 45.5522 37.0968 44.3086 37.5403 43.183C38.3371 41.1607 40.3035 39.8409 42.4746 39.8712L44.74 39.9027Z" fill="white" fill-opacity="0.69" shape-rendering="crispEdges"/>
<path d="M44.7314 40.4027C46.7515 40.4308 48.5236 41.7464 49.1333 43.6704C49.4296 44.6055 49.4253 45.6109 49.1211 46.5453L49.0884 46.6458C48.4039 48.7484 46.4289 50.1625 44.2199 50.1318L42.6331 50.1096C40.488 50.0797 38.6029 48.6906 37.9413 46.652L37.9065 46.545C37.5696 45.5068 37.6045 44.3826 38.0055 43.365C38.7258 41.5368 40.5034 40.3437 42.4661 40.3711L44.7314 40.4027Z" stroke="#C5C5C5" shape-rendering="crispEdges"/>
</g>
<g filter="url(#filter2_dii_5_134)">
<path d="M67.6301 17.029C69.865 17.0601 71.8256 18.5156 72.5001 20.6443C72.8279 21.6789 72.8232 22.7911 72.4867 23.825L72.4539 23.9255C71.7014 26.2371 69.5301 27.7918 67.1015 27.7579L65.5147 27.7358C63.156 27.7029 61.0833 26.1755 60.3558 23.9339L60.321 23.8269C59.9483 22.6785 59.987 21.4349 60.4305 20.3092C61.2273 18.2869 63.1936 16.9672 65.3648 16.9974L67.6301 17.029Z" fill="white" fill-opacity="0.69" shape-rendering="crispEdges"/>
<path d="M67.6216 17.5289C69.6416 17.5571 71.4137 18.8726 72.0234 20.7967C72.3197 21.7318 72.3155 22.7371 72.0112 23.6716L71.9785 23.7721C71.2941 25.8746 69.319 27.2888 67.11 27.258L65.5232 27.2359C63.3781 27.206 61.4931 25.8168 60.8314 23.7782L60.7967 23.6712C60.4597 22.633 60.4947 21.5088 60.8956 20.4912C61.6159 18.6631 63.3935 17.47 65.3562 17.4973L67.6216 17.5289Z" stroke="#C5C5C5" shape-rendering="crispEdges"/>
</g>
<g filter="url(#filter3_dii_5_134)">
<path d="M105.434 0.10867C107.669 0.139815 109.63 1.59531 110.304 3.724C110.632 4.75857 110.627 5.87082 110.291 6.90466L110.258 7.00518C109.506 9.31673 107.334 10.8715 104.906 10.8376L103.319 10.8155C100.96 10.7826 98.8875 9.25516 98.16 7.0136L98.1252 6.90662C97.7525 5.75814 97.7912 4.51454 98.2347 3.3889C99.0315 1.36662 100.998 0.0468431 103.169 0.0771003L105.434 0.10867Z" fill="white" fill-opacity="0.69" shape-rendering="crispEdges"/>
<path d="M105.426 0.608597C107.446 0.636748 109.218 1.95232 109.828 3.87637C110.124 4.81148 110.12 5.8168 109.815 6.75126L109.783 6.85177C109.098 8.95432 107.123 10.3685 104.914 10.3377L103.327 10.3156C101.182 10.2857 99.2973 8.89651 98.6356 6.85791L98.6009 6.75093C98.2639 5.71271 98.2989 4.58849 98.6998 3.57091C99.4201 1.74276 101.198 0.549675 103.16 0.577027L105.426 0.608597Z" stroke="#C5C5C5" shape-rendering="crispEdges"/>
</g>
<g filter="url(#filter4_dii_5_134)">
<path d="M109.943 29.8759C112.177 29.907 114.138 31.3625 114.813 33.4912C115.14 34.5258 115.136 35.638 114.799 36.6719L114.766 36.7724C114.014 39.0839 111.843 40.6387 109.414 40.6048L107.827 40.5827C105.468 40.5498 103.396 39.0224 102.668 36.7808L102.634 36.6738C102.261 35.5254 102.299 34.2818 102.743 33.1561C103.54 31.1338 105.506 29.8141 107.677 29.8443L109.943 29.8759Z" fill="white" fill-opacity="0.69" shape-rendering="crispEdges"/>
<path d="M109.934 30.3758C111.954 30.404 113.726 31.7195 114.336 33.6436C114.632 34.5787 114.628 35.584 114.324 36.5185L114.291 36.619C113.607 38.7215 111.632 40.1357 109.423 40.1049L107.836 40.0828C105.691 40.0529 103.806 38.6637 103.144 36.6251L103.109 36.5181C102.772 35.4799 102.807 34.3557 103.208 33.3381C103.928 31.51 105.706 30.3169 107.669 30.3442L109.934 30.3758Z" stroke="#C5C5C5" shape-rendering="crispEdges"/>
</g>
<g filter="url(#filter5_dii_5_134)">
<path d="M129.365 65.9099C131.6 65.941 133.56 67.3965 134.235 69.5252C134.563 70.5598 134.558 71.672 134.222 72.7059L134.189 72.8064C133.436 75.118 131.265 76.6727 128.836 76.6388L127.25 76.6167C124.891 76.5839 122.818 75.0564 122.091 72.8148L122.056 72.7078C121.683 71.5594 121.722 70.3158 122.165 69.1901C122.962 67.1678 124.928 65.8481 127.1 65.8783L129.365 65.9099Z" fill="white" fill-opacity="0.69" shape-rendering="crispEdges"/>
<path d="M122.532 72.5522L122.056 72.7078L122.532 72.5522C122.195 71.5139 122.23 70.3897 122.63 69.3721C123.351 67.544 125.128 66.3509 127.091 66.3783L129.356 66.4098C131.376 66.438 133.149 67.7535 133.758 69.6776C134.055 70.6127 134.05 71.618 133.746 72.5525L133.713 72.653C133.029 74.7555 131.054 76.1697 128.845 76.1389L127.258 76.1168C125.113 76.0869 123.228 74.6977 122.566 72.6591L122.532 72.5522Z" stroke="#C5C5C5" shape-rendering="crispEdges"/>
</g>
<g filter="url(#filter6_dii_5_134)">
<path d="M204.279 18.5957C206.514 18.6268 208.475 20.0823 209.149 22.211C209.477 23.2456 209.472 24.3578 209.136 25.3917L209.103 25.4922C208.35 27.8037 206.179 29.3585 203.75 29.3246L202.164 29.3025C199.805 29.2696 197.732 27.7422 197.005 25.5006L196.97 25.3936C196.597 24.2451 196.636 23.0015 197.079 21.8759C197.876 19.8536 199.843 18.5338 202.014 18.5641L204.279 18.5957Z" fill="white" fill-opacity="0.69" shape-rendering="crispEdges"/>
<path d="M204.27 19.0956C206.291 19.1237 208.063 20.4393 208.672 22.3634C208.969 23.2985 208.964 24.3038 208.66 25.2383L208.627 25.3388C207.943 27.4413 205.968 28.8555 203.759 28.8247L202.172 28.8026C200.027 28.7727 198.142 27.3835 197.48 25.3449L197.446 25.2379C197.109 24.1997 197.144 23.0755 197.545 22.0579C198.265 20.2298 200.042 19.0367 202.005 19.064L204.27 19.0956Z" stroke="#C5C5C5" shape-rendering="crispEdges"/>
</g>
<g filter="url(#filter7_dii_5_134)">
<path d="M154.244 9.57867C157.651 9.62614 160.66 11.8654 161.722 15.099C162.261 16.7377 162.26 18.5268 161.709 20.1647L161.519 20.7308C160.406 24.0366 157.284 26.2491 153.8 26.2005L149.883 26.1459C146.498 26.0987 143.515 23.9254 142.436 20.7195L142.248 20.1598C141.637 18.3442 141.709 16.3433 142.433 14.5656C143.68 11.5048 146.695 9.47345 149.996 9.51946L154.244 9.57867Z" fill="white" fill-opacity="0.69" shape-rendering="crispEdges"/>
<path d="M154.236 10.0786C157.427 10.1231 160.25 12.222 161.247 15.2564C161.752 16.7939 161.751 18.4723 161.235 20.0066L161.045 20.5727C160.002 23.6719 157.075 25.7461 153.808 25.7006L149.892 25.646C146.718 25.6018 143.921 23.5643 142.91 20.5587L142.722 19.999C142.15 18.2985 142.217 16.4211 142.896 14.753C144.066 11.8802 146.896 9.97631 149.987 10.0194L154.236 10.0786Z" stroke="#C5C5C5" shape-rendering="crispEdges"/>
</g>
<g filter="url(#filter8_dii_5_134)">
<path d="M75.1209 76.2813C77.934 76.3205 80.404 78.1471 81.2628 80.8234C81.6862 82.1432 81.6804 83.5644 81.2461 84.8833L81.2041 85.011C80.2471 87.9173 77.512 89.8687 74.4552 89.8261L72.2661 89.7956C69.2983 89.7542 66.6881 87.8381 65.7623 85.0211L65.7176 84.8853C65.2362 83.4205 65.2858 81.8315 65.8579 80.3963C66.8705 77.8557 69.3467 76.2008 72.0786 76.2389L75.1209 76.2813Z" fill="white" fill-opacity="0.69" shape-rendering="crispEdges"/>
<path d="M75.1124 76.7812C77.7113 76.8174 79.9932 78.505 80.7866 80.9775C81.1778 82.1968 81.1724 83.5098 80.7712 84.7283L80.7292 84.856C79.8407 87.5541 77.3016 89.3657 74.4638 89.3261L72.2747 89.2956C69.5198 89.2572 67.0968 87.4786 66.2373 84.8637L66.1927 84.7279C65.7479 83.3745 65.7937 81.9062 66.3223 80.5801C67.2579 78.2327 69.5459 76.7036 72.07 76.7388L75.1124 76.7812Z" stroke="#C5C5C5" shape-rendering="crispEdges"/>
</g>
<g filter="url(#filter9_dii_5_134)">
<path d="M186.615 44.1572C190.007 44.2044 192.994 46.3858 194.067 49.6002L195.173 52.9096C195.728 54.5706 195.721 56.3694 195.154 58.0297L193.76 62.1106C192.637 65.3983 189.524 67.5935 186.053 67.5451L175.455 67.3974C172.084 67.3505 169.111 65.1957 168.021 62.0094L166.615 57.9012C165.986 56.0615 166.049 54.0534 166.794 52.2529L168.154 48.9661C169.411 45.9266 172.396 43.959 175.682 44.0048L186.615 44.1572Z" fill="white" fill-opacity="0.69" shape-rendering="crispEdges"/>
<path d="M186.606 44.6571C189.786 44.7014 192.586 46.7464 193.593 49.7599L194.699 53.0694C195.219 54.6265 195.213 56.3129 194.681 57.8695L193.287 61.9503C192.234 65.0326 189.316 67.0906 186.062 67.0452L175.463 66.8975C172.303 66.8535 169.516 64.8334 168.494 61.8462L167.088 57.738C166.498 56.0133 166.558 54.1307 167.256 52.4428L168.616 49.1559C169.794 46.3064 172.593 44.4618 175.673 44.5047L186.606 44.6571Z" stroke="#C5C5C5" shape-rendering="crispEdges"/>
</g>
<path d="M16.2959 16.221L33.9087 16.221C39.3154 16.221 43.6949 20.6006 43.6949 26.0071V26.0071L43.6949 39.7941" stroke="white"/>
<path d="M69.859 22.0789L97.2581 22.0789L114.637 24.1234C118.166 24.5385 121.744 24.1648 125.112 23.0293L143.234 16.9203" stroke="white"/>
<path d="M110.995 5.54717L138.394 5.54717L157.066 5.54717C170.31 5.54717 181.037 16.2748 181.037 29.5183L181.038 43.8675" stroke="white"/>
<path d="M115.503 35.6149L142.902 35.6149L158.971 37.5053C163.334 38.0185 167.754 37.3243 171.752 35.4986L197.338 23.8138" stroke="white"/>
<path d="M108.703 40.81L108.703 47.9268C108.703 51.7659 107.158 55.5318 104.371 58.4852L81.4989 82.7215" stroke="white"/>
<path d="M103.696 10.9669L103.696 13.8425C103.696 15.3814 102.35 16.607 100.66 16.607V16.607C98.9036 16.607 97.5329 17.9281 97.6298 19.5281L98.7721 38.3954C98.9993 42.1479 95.7849 45.2463 91.6647 45.2463L50.3886 45.2463" stroke="white"/>
<path d="M44.0903 50.6105L44.0903 54.9995C44.0903 63.9403 51.3378 70.9776 60.5457 70.9776L121.432 70.9776" stroke="white"/>
<path d="M152.006 25.8204L152.006 44.0365C152.006 46.0024 153.788 47.6275 155.943 47.6275V47.6275C158.099 47.6275 159.881 49.2527 159.881 51.2186L159.881 63.9061C159.881 68.2028 163.775 71.7547 168.486 71.7547L188.762 71.7547C190.988 71.7547 192.829 73.4335 192.829 75.4643V75.4643C192.829 77.4122 191.13 78.9615 188.995 78.9615L145.113 78.9615C142.328 78.9615 140.112 80.9823 140.112 83.5231V83.5231C140.112 86.172 142.513 88.3617 145.417 88.3617L147.048 88.3617C150.846 88.3617 153.985 91.2246 153.985 94.688L153.985 95.9421C153.985 99.9227 150.513 103.089 146.149 103.089L62.7049 103.089C57.9938 103.089 54.0994 99.5368 54.0994 95.24L54.0994 90.5607C54.0994 86.4394 57.6935 83.1615 62.2123 83.1615L64.9531 83.1615" stroke="white"/>
<defs>
<filter id="filter0_dii_5_134" x="0.417969" y="11.1874" width="20.6758" height="18.7616" filterUnits="userSpaceOnUse" color-interpolation-filters="sRGB">
<feFlood flood-opacity="0" result="BackgroundImageFix"/>
<feColorMatrix in="SourceAlpha" type="matrix" values="0 0 0 0 0 0 0 0 0 0 0 0 0 0 0 0 0 0 127 0" result="hardAlpha"/>
<feOffset dy="4"/>
<feGaussianBlur stdDeviation="2"/>
<feComposite in2="hardAlpha" operator="out"/>
<feColorMatrix type="matrix" values="0 0 0 0 0 0 0 0 0 0 0 0 0 0 0 0 0 0 0.25 0"/>
<feBlend mode="normal" in2="BackgroundImageFix" result="effect1_dropShadow_5_134"/>
<feBlend mode="normal" in="SourceGraphic" in2="effect1_dropShadow_5_134" result="shape"/>
<feColorMatrix in="SourceAlpha" type="matrix" values="0 0 0 0 0 0 0 0 0 0 0 0 0 0 0 0 0 0 127 0" result="hardAlpha"/>
<feOffset dy="4"/>
<feGaussianBlur stdDeviation="2"/>
<feComposite in2="hardAlpha" operator="arithmetic" k2="-1" k3="1"/>
<feColorMatrix type="matrix" values="0 0 0 0 0 0 0 0 0 0 0 0 0 0 0 0 0 0 0.25 0"/>
<feBlend mode="normal" in2="shape" result="effect2_innerShadow_5_134"/>
<feColorMatrix in="SourceAlpha" type="matrix" values="0 0 0 0 0 0 0 0 0 0 0 0 0 0 0 0 0 0 127 0" result="hardAlpha"/>
<feOffset dy="4"/>
<feGaussianBlur stdDeviation="2"/>
<feComposite in2="hardAlpha" operator="arithmetic" k2="-1" k3="1"/>
<feColorMatrix type="matrix" values="0 0 0 0 0 0 0 0 0 0 0 0 0 0 0 0 0 0 0.25 0"/>
<feBlend mode="normal" in2="effect2_innerShadow_5_134" result="effect3_innerShadow_5_134"/>
</filter>
<filter id="filter1_dii_5_134" x="33.1768" y="39.8707" width="20.6758" height="18.7616" filterUnits="userSpaceOnUse" color-interpolation-filters="sRGB">
<feFlood flood-opacity="0" result="BackgroundImageFix"/>
<feColorMatrix in="SourceAlpha" type="matrix" values="0 0 0 0 0 0 0 0 0 0 0 0 0 0 0 0 0 0 127 0" result="hardAlpha"/>
<feOffset dy="4"/>
<feGaussianBlur stdDeviation="2"/>
<feComposite in2="hardAlpha" operator="out"/>
<feColorMatrix type="matrix" values="0 0 0 0 0 0 0 0 0 0 0 0 0 0 0 0 0 0 0.25 0"/>
<feBlend mode="normal" in2="BackgroundImageFix" result="effect1_dropShadow_5_134"/>
<feBlend mode="normal" in="SourceGraphic" in2="effect1_dropShadow_5_134" result="shape"/>
<feColorMatrix in="SourceAlpha" type="matrix" values="0 0 0 0 0 0 0 0 0 0 0 0 0 0 0 0 0 0 127 0" result="hardAlpha"/>
<feOffset dy="4"/>
<feGaussianBlur stdDeviation="2"/>
<feComposite in2="hardAlpha" operator="arithmetic" k2="-1" k3="1"/>
<feColorMatrix type="matrix" values="0 0 0 0 0 0 0 0 0 0 0 0 0 0 0 0 0 0 0.25 0"/>
<feBlend mode="normal" in2="shape" result="effect2_innerShadow_5_134"/>
<feColorMatrix in="SourceAlpha" type="matrix" values="0 0 0 0 0 0 0 0 0 0 0 0 0 0 0 0 0 0 127 0" result="hardAlpha"/>
<feOffset dy="4"/>
<feGaussianBlur stdDeviation="2"/>
<feComposite in2="hardAlpha" operator="arithmetic" k2="-1" k3="1"/>
<feColorMatrix type="matrix" values="0 0 0 0 0 0 0 0 0 0 0 0 0 0 0 0 0 0 0.25 0"/>
<feBlend mode="normal" in2="effect2_innerShadow_5_134" result="effect3_innerShadow_5_134"/>
</filter>
<filter id="filter2_dii_5_134" x="56.0669" y="16.9969" width="20.6758" height="18.7616" filterUnits="userSpaceOnUse" color-interpolation-filters="sRGB">
<feFlood flood-opacity="0" result="BackgroundImageFix"/>
<feColorMatrix in="SourceAlpha" type="matrix" values="0 0 0 0 0 0 0 0 0 0 0 0 0 0 0 0 0 0 127 0" result="hardAlpha"/>
<feOffset dy="4"/>
<feGaussianBlur stdDeviation="2"/>
<feComposite in2="hardAlpha" operator="out"/>
<feColorMatrix type="matrix" values="0 0 0 0 0 0 0 0 0 0 0 0 0 0 0 0 0 0 0.25 0"/>
<feBlend mode="normal" in2="BackgroundImageFix" result="effect1_dropShadow_5_134"/>
<feBlend mode="normal" in="SourceGraphic" in2="effect1_dropShadow_5_134" result="shape"/>
<feColorMatrix in="SourceAlpha" type="matrix" values="0 0 0 0 0 0 0 0 0 0 0 0 0 0 0 0 0 0 127 0" result="hardAlpha"/>
<feOffset dy="4"/>
<feGaussianBlur stdDeviation="2"/>
<feComposite in2="hardAlpha" operator="arithmetic" k2="-1" k3="1"/>
<feColorMatrix type="matrix" values="0 0 0 0 0 0 0 0 0 0 0 0 0 0 0 0 0 0 0.25 0"/>
<feBlend mode="normal" in2="shape" result="effect2_innerShadow_5_134"/>
<feColorMatrix in="SourceAlpha" type="matrix" values="0 0 0 0 0 0 0 0 0 0 0 0 0 0 0 0 0 0 127 0" result="hardAlpha"/>
<feOffset dy="4"/>
<feGaussianBlur stdDeviation="2"/>
<feComposite in2="hardAlpha" operator="arithmetic" k2="-1" k3="1"/>
<feColorMatrix type="matrix" values="0 0 0 0 0 0 0 0 0 0 0 0 0 0 0 0 0 0 0.25 0"/>
<feBlend mode="normal" in2="effect2_innerShadow_5_134" result="effect3_innerShadow_5_134"/>
</filter>
<filter id="filter3_dii_5_134" x="93.8711" y="0.0765991" width="20.6758" height="18.7616" filterUnits="userSpaceOnUse" color-interpolation-filters="sRGB">
<feFlood flood-opacity="0" result="BackgroundImageFix"/>
<feColorMatrix in="SourceAlpha" type="matrix" values="0 0 0 0 0 0 0 0 0 0 0 0 0 0 0 0 0 0 127 0" result="hardAlpha"/>
<feOffset dy="4"/>
<feGaussianBlur stdDeviation="2"/>
<feComposite in2="hardAlpha" operator="out"/>
<feColorMatrix type="matrix" values="0 0 0 0 0 0 0 0 0 0 0 0 0 0 0 0 0 0 0.25 0"/>
<feBlend mode="normal" in2="BackgroundImageFix" result="effect1_dropShadow_5_134"/>
<feBlend mode="normal" in="SourceGraphic" in2="effect1_dropShadow_5_134" result="shape"/>
<feColorMatrix in="SourceAlpha" type="matrix" values="0 0 0 0 0 0 0 0 0 0 0 0 0 0 0 0 0 0 127 0" result="hardAlpha"/>
<feOffset dy="4"/>
<feGaussianBlur stdDeviation="2"/>
<feComposite in2="hardAlpha" operator="arithmetic" k2="-1" k3="1"/>
<feColorMatrix type="matrix" values="0 0 0 0 0 0 0 0 0 0 0 0 0 0 0 0 0 0 0.25 0"/>
<feBlend mode="normal" in2="shape" result="effect2_innerShadow_5_134"/>
<feColorMatrix in="SourceAlpha" type="matrix" values="0 0 0 0 0 0 0 0 0 0 0 0 0 0 0 0 0 0 127 0" result="hardAlpha"/>
<feOffset dy="4"/>
<feGaussianBlur stdDeviation="2"/>
<feComposite in2="hardAlpha" operator="arithmetic" k2="-1" k3="1"/>
<feColorMatrix type="matrix" values="0 0 0 0 0 0 0 0 0 0 0 0 0 0 0 0 0 0 0.25 0"/>
<feBlend mode="normal" in2="effect2_innerShadow_5_134" result="effect3_innerShadow_5_134"/>
</filter>
<filter id="filter4_dii_5_134" x="98.3794" y="29.8438" width="20.6758" height="18.7616" filterUnits="userSpaceOnUse" color-interpolation-filters="sRGB">
<feFlood flood-opacity="0" result="BackgroundImageFix"/>
<feColorMatrix in="SourceAlpha" type="matrix" values="0 0 0 0 0 0 0 0 0 0 0 0 0 0 0 0 0 0 127 0" result="hardAlpha"/>
<feOffset dy="4"/>
<feGaussianBlur stdDeviation="2"/>
<feComposite in2="hardAlpha" operator="out"/>
<feColorMatrix type="matrix" values="0 0 0 0 0 0 0 0 0 0 0 0 0 0 0 0 0 0 0.25 0"/>
<feBlend mode="normal" in2="BackgroundImageFix" result="effect1_dropShadow_5_134"/>
<feBlend mode="normal" in="SourceGraphic" in2="effect1_dropShadow_5_134" result="shape"/>
<feColorMatrix in="SourceAlpha" type="matrix" values="0 0 0 0 0 0 0 0 0 0 0 0 0 0 0 0 0 0 127 0" result="hardAlpha"/>
<feOffset dy="4"/>
<feGaussianBlur stdDeviation="2"/>
<feComposite in2="hardAlpha" operator="arithmetic" k2="-1" k3="1"/>
<feColorMatrix type="matrix" values="0 0 0 0 0 0 0 0 0 0 0 0 0 0 0 0 0 0 0.25 0"/>
<feBlend mode="normal" in2="shape" result="effect2_innerShadow_5_134"/>
<feColorMatrix in="SourceAlpha" type="matrix" values="0 0 0 0 0 0 0 0 0 0 0 0 0 0 0 0 0 0 127 0" result="hardAlpha"/>
<feOffset dy="4"/>
<feGaussianBlur stdDeviation="2"/>
<feComposite in2="hardAlpha" operator="arithmetic" k2="-1" k3="1"/>
<feColorMatrix type="matrix" values="0 0 0 0 0 0 0 0 0 0 0 0 0 0 0 0 0 0 0.25 0"/>
<feBlend mode="normal" in2="effect2_innerShadow_5_134" result="effect3_innerShadow_5_134"/>
</filter>
<filter id="filter5_dii_5_134" x="117.802" y="65.8778" width="20.6758" height="18.7616" filterUnits="userSpaceOnUse" color-interpolation-filters="sRGB">
<feFlood flood-opacity="0" result="BackgroundImageFix"/>
<feColorMatrix in="SourceAlpha" type="matrix" values="0 0 0 0 0 0 0 0 0 0 0 0 0 0 0 0 0 0 127 0" result="hardAlpha"/>
<feOffset dy="4"/>
<feGaussianBlur stdDeviation="2"/>
<feComposite in2="hardAlpha" operator="out"/>
<feColorMatrix type="matrix" values="0 0 0 0 0 0 0 0 0 0 0 0 0 0 0 0 0 0 0.25 0"/>
<feBlend mode="normal" in2="BackgroundImageFix" result="effect1_dropShadow_5_134"/>
<feBlend mode="normal" in="SourceGraphic" in2="effect1_dropShadow_5_134" result="shape"/>
<feColorMatrix in="SourceAlpha" type="matrix" values="0 0 0 0 0 0 0 0 0 0 0 0 0 0 0 0 0 0 127 0" result="hardAlpha"/>
<feOffset dy="4"/>
<feGaussianBlur stdDeviation="2"/>
<feComposite in2="hardAlpha" operator="arithmetic" k2="-1" k3="1"/>
<feColorMatrix type="matrix" values="0 0 0 0 0 0 0 0 0 0 0 0 0 0 0 0 0 0 0.25 0"/>
<feBlend mode="normal" in2="shape" result="effect2_innerShadow_5_134"/>
<feColorMatrix in="SourceAlpha" type="matrix" values="0 0 0 0 0 0 0 0 0 0 0 0 0 0 0 0 0 0 127 0" result="hardAlpha"/>
<feOffset dy="4"/>
<feGaussianBlur stdDeviation="2"/>
<feComposite in2="hardAlpha" operator="arithmetic" k2="-1" k3="1"/>
<feColorMatrix type="matrix" values="0 0 0 0 0 0 0 0 0 0 0 0 0 0 0 0 0 0 0.25 0"/>
<feBlend mode="normal" in2="effect2_innerShadow_5_134" result="effect3_innerShadow_5_134"/>
</filter>
<filter id="filter6_dii_5_134" x="192.716" y="18.5636" width="20.6758" height="18.7616" filterUnits="userSpaceOnUse" color-interpolation-filters="sRGB">
<feFlood flood-opacity="0" result="BackgroundImageFix"/>
<feColorMatrix in="SourceAlpha" type="matrix" values="0 0 0 0 0 0 0 0 0 0 0 0 0 0 0 0 0 0 127 0" result="hardAlpha"/>
<feOffset dy="4"/>
<feGaussianBlur stdDeviation="2"/>
<feComposite in2="hardAlpha" operator="out"/>
<feColorMatrix type="matrix" values="0 0 0 0 0 0 0 0 0 0 0 0 0 0 0 0 0 0 0.25 0"/>
<feBlend mode="normal" in2="BackgroundImageFix" result="effect1_dropShadow_5_134"/>
<feBlend mode="normal" in="SourceGraphic" in2="effect1_dropShadow_5_134" result="shape"/>
<feColorMatrix in="SourceAlpha" type="matrix" values="0 0 0 0 0 0 0 0 0 0 0 0 0 0 0 0 0 0 127 0" result="hardAlpha"/>
<feOffset dy="4"/>
<feGaussianBlur stdDeviation="2"/>
<feComposite in2="hardAlpha" operator="arithmetic" k2="-1" k3="1"/>
<feColorMatrix type="matrix" values="0 0 0 0 0 0 0 0 0 0 0 0 0 0 0 0 0 0 0.25 0"/>
<feBlend mode="normal" in2="shape" result="effect2_innerShadow_5_134"/>
<feColorMatrix in="SourceAlpha" type="matrix" values="0 0 0 0 0 0 0 0 0 0 0 0 0 0 0 0 0 0 127 0" result="hardAlpha"/>
<feOffset dy="4"/>
<feGaussianBlur stdDeviation="2"/>
<feComposite in2="hardAlpha" operator="arithmetic" k2="-1" k3="1"/>
<feColorMatrix type="matrix" values="0 0 0 0 0 0 0 0 0 0 0 0 0 0 0 0 0 0 0.25 0"/>
<feBlend mode="normal" in2="effect2_innerShadow_5_134" result="effect3_innerShadow_5_134"/>
</filter>
<filter id="filter7_dii_5_134" x="137.835" y="9.51871" width="28.2891" height="24.6826" filterUnits="userSpaceOnUse" color-interpolation-filters="sRGB">
<feFlood flood-opacity="0" result="BackgroundImageFix"/>
<feColorMatrix in="SourceAlpha" type="matrix" values="0 0 0 0 0 0 0 0 0 0 0 0 0 0 0 0 0 0 127 0" result="hardAlpha"/>
<feOffset dy="4"/>
<feGaussianBlur stdDeviation="2"/>
<feComposite in2="hardAlpha" operator="out"/>
<feColorMatrix type="matrix" values="0 0 0 0 0 0 0 0 0 0 0 0 0 0 0 0 0 0 0.25 0"/>
<feBlend mode="normal" in2="BackgroundImageFix" result="effect1_dropShadow_5_134"/>
<feBlend mode="normal" in="SourceGraphic" in2="effect1_dropShadow_5_134" result="shape"/>
<feColorMatrix in="SourceAlpha" type="matrix" values="0 0 0 0 0 0 0 0 0 0 0 0 0 0 0 0 0 0 127 0" result="hardAlpha"/>
<feOffset dy="4"/>
<feGaussianBlur stdDeviation="2"/>
<feComposite in2="hardAlpha" operator="arithmetic" k2="-1" k3="1"/>
<feColorMatrix type="matrix" values="0 0 0 0 0 0 0 0 0 0 0 0 0 0 0 0 0 0 0.25 0"/>
<feBlend mode="normal" in2="shape" result="effect2_innerShadow_5_134"/>
<feColorMatrix in="SourceAlpha" type="matrix" values="0 0 0 0 0 0 0 0 0 0 0 0 0 0 0 0 0 0 127 0" result="hardAlpha"/>
<feOffset dy="4"/>
<feGaussianBlur stdDeviation="2"/>
<feComposite in2="hardAlpha" operator="arithmetic" k2="-1" k3="1"/>
<feColorMatrix type="matrix" values="0 0 0 0 0 0 0 0 0 0 0 0 0 0 0 0 0 0 0.25 0"/>
<feBlend mode="normal" in2="effect2_innerShadow_5_134" result="effect3_innerShadow_5_134"/>
</filter>
<filter id="filter8_dii_5_134" x="61.3896" y="76.2383" width="24.1865" height="21.5885" filterUnits="userSpaceOnUse" color-interpolation-filters="sRGB">
<feFlood flood-opacity="0" result="BackgroundImageFix"/>
<feColorMatrix in="SourceAlpha" type="matrix" values="0 0 0 0 0 0 0 0 0 0 0 0 0 0 0 0 0 0 127 0" result="hardAlpha"/>
<feOffset dy="4"/>
<feGaussianBlur stdDeviation="2"/>
<feComposite in2="hardAlpha" operator="out"/>
<feColorMatrix type="matrix" values="0 0 0 0 0 0 0 0 0 0 0 0 0 0 0 0 0 0 0.25 0"/>
<feBlend mode="normal" in2="BackgroundImageFix" result="effect1_dropShadow_5_134"/>
<feBlend mode="normal" in="SourceGraphic" in2="effect1_dropShadow_5_134" result="shape"/>
<feColorMatrix in="SourceAlpha" type="matrix" values="0 0 0 0 0 0 0 0 0 0 0 0 0 0 0 0 0 0 127 0" result="hardAlpha"/>
<feOffset dy="4"/>
<feGaussianBlur stdDeviation="2"/>
<feComposite in2="hardAlpha" operator="arithmetic" k2="-1" k3="1"/>
<feColorMatrix type="matrix" values="0 0 0 0 0 0 0 0 0 0 0 0 0 0 0 0 0 0 0.25 0"/>
<feBlend mode="normal" in2="shape" result="effect2_innerShadow_5_134"/>
<feColorMatrix in="SourceAlpha" type="matrix" values="0 0 0 0 0 0 0 0 0 0 0 0 0 0 0 0 0 0 127 0" result="hardAlpha"/>
<feOffset dy="4"/>
<feGaussianBlur stdDeviation="2"/>
<feComposite in2="hardAlpha" operator="arithmetic" k2="-1" k3="1"/>
<feColorMatrix type="matrix" values="0 0 0 0 0 0 0 0 0 0 0 0 0 0 0 0 0 0 0.25 0"/>
<feBlend mode="normal" in2="effect2_innerShadow_5_134" result="effect3_innerShadow_5_134"/>
</filter>
<filter id="filter9_dii_5_134" x="162.186" y="44.004" width="37.3989" height="31.5419" filterUnits="userSpaceOnUse" color-interpolation-filters="sRGB">
<feFlood flood-opacity="0" result="BackgroundImageFix"/>
<feColorMatrix in="SourceAlpha" type="matrix" values="0 0 0 0 0 0 0 0 0 0 0 0 0 0 0 0 0 0 127 0" result="hardAlpha"/>
<feOffset dy="4"/>
<feGaussianBlur stdDeviation="2"/>
<feComposite in2="hardAlpha" operator="out"/>
<feColorMatrix type="matrix" values="0 0 0 0 0 0 0 0 0 0 0 0 0 0 0 0 0 0 0.25 0"/>
<feBlend mode="normal" in2="BackgroundImageFix" result="effect1_dropShadow_5_134"/>
<feBlend mode="normal" in="SourceGraphic" in2="effect1_dropShadow_5_134" result="shape"/>
<feColorMatrix in="SourceAlpha" type="matrix" values="0 0 0 0 0 0 0 0 0 0 0 0 0 0 0 0 0 0 127 0" result="hardAlpha"/>
<feOffset dy="4"/>
<feGaussianBlur stdDeviation="2"/>
<feComposite in2="hardAlpha" operator="arithmetic" k2="-1" k3="1"/>
<feColorMatrix type="matrix" values="0 0 0 0 0 0 0 0 0 0 0 0 0 0 0 0 0 0 0.25 0"/>
<feBlend mode="normal" in2="shape" result="effect2_innerShadow_5_134"/>
<feColorMatrix in="SourceAlpha" type="matrix" values="0 0 0 0 0 0 0 0 0 0 0 0 0 0 0 0 0 0 127 0" result="hardAlpha"/>
<feOffset dy="4"/>
<feGaussianBlur stdDeviation="2"/>
<feComposite in2="hardAlpha" operator="arithmetic" k2="-1" k3="1"/>
<feColorMatrix type="matrix" values="0 0 0 0 0 0 0 0 0 0 0 0 0 0 0 0 0 0 0.25 0"/>
<feBlend mode="normal" in2="effect2_innerShadow_5_134" result="effect3_innerShadow_5_134"/>
</filter>
</defs>
</svg>
