<svg width="511" height="43" viewBox="0 0 511 43" fill="none" xmlns="http://www.w3.org/2000/svg">
<path d="M57.0947 2.62988C56.2712 2.77311 55.5908 2.93424 55.0537 3.11328C54.5524 3.29232 54.1227 3.52507 53.7646 3.81152C53.4066 4.09798 53.1022 4.49186 52.8516 4.99316C52.6009 5.49447 52.3324 6.139 52.0459 6.92676C50.9359 9.93457 49.9691 12.5306 49.1455 14.7148C48.3577 16.8991 47.6416 18.8864 46.9971 20.6768C46.3525 22.4313 45.7617 24.0605 45.2246 25.5645C44.7233 27.0684 44.1862 28.6439 43.6133 30.291C43.0404 31.9382 42.4316 33.7643 41.7871 35.7695C41.1426 37.7389 40.3906 40.0485 39.5312 42.6982H38.6182L28.8428 16.7559L19.3359 42.6982H18.4229L6.60645 9.77344C6.03353 8.30534 5.53223 7.1237 5.10254 6.22852C4.67285 5.33333 4.22526 4.63509 3.75977 4.13379C3.33008 3.59668 2.82878 3.23861 2.25586 3.05957C1.71875 2.84473 1.05632 2.7015 0.268555 2.62988V1.39453H15.3076V2.62988C13.7679 2.7015 12.7116 2.88053 12.1387 3.16699C11.5658 3.41764 11.2793 3.86523 11.2793 4.50977C11.2793 4.86784 11.333 5.27962 11.4404 5.74512C11.5837 6.21061 11.7627 6.74772 11.9775 7.35645L20.8398 30.4521L27.3926 13.1035L25.3516 8.1084C24.8145 6.89095 24.349 5.92415 23.9551 5.20801C23.597 4.45605 23.2031 3.90104 22.7734 3.54297C22.3438 3.14909 21.8424 2.89844 21.2695 2.79102C20.7324 2.68359 20.0342 2.62988 19.1748 2.62988V1.39453H35.5029V2.62988C33.8916 2.62988 32.71 2.80892 31.958 3.16699C31.2419 3.52507 30.8838 4.04427 30.8838 4.72461C30.8838 5.04688 30.9554 5.47656 31.0986 6.01367C31.2419 6.55078 31.4567 7.15951 31.7432 7.83984L32.4951 9.71973L40.6055 30.6133L48.2324 9.88086C48.9128 8.01888 49.2529 6.46126 49.2529 5.20801C49.2529 4.38444 48.9307 3.79362 48.2861 3.43555C47.6774 3.04167 46.5853 2.77311 45.0098 2.62988V1.39453H57.0947V2.62988ZM83.8428 32.3857C82.5537 35.7516 80.7992 38.2939 78.5791 40.0127C76.3949 41.7314 73.8167 42.5908 70.8447 42.5908C69.0902 42.5908 67.4967 42.2686 66.0645 41.624C64.668 40.9795 63.4684 40.0664 62.4658 38.8848C61.4632 37.7031 60.6934 36.2708 60.1562 34.5879C59.6191 32.9049 59.3506 31.0072 59.3506 28.8945C59.3506 26.6387 59.6549 24.5798 60.2637 22.7178C60.9082 20.8558 61.7855 19.2624 62.8955 17.9375C64.0413 16.5768 65.402 15.5205 66.9775 14.7686C68.5531 14.0166 70.2897 13.6406 72.1875 13.6406C73.7988 13.6406 75.2669 13.945 76.5918 14.5537C77.9525 15.1624 79.0983 16.0218 80.0293 17.1318C80.4232 17.6331 80.7454 18.1344 80.9961 18.6357C81.2826 19.137 81.5153 19.6921 81.6943 20.3008C81.9092 20.9095 82.0882 21.5898 82.2314 22.3418C82.3747 23.0938 82.5179 23.9531 82.6611 24.9199H63.8086C63.8802 26.8893 64.0413 28.5186 64.292 29.8076C64.5785 31.0609 65.026 32.2783 65.6348 33.46C67.3893 36.7542 69.9674 38.4014 73.3691 38.4014C75.3385 38.4014 77.0394 37.918 78.4717 36.9512C79.9398 35.9844 81.4079 34.3372 82.876 32.0098L83.8428 32.3857ZM76.4307 22.8789C76.0368 20.2292 75.3923 18.403 74.4971 17.4004C73.6377 16.362 72.277 15.8428 70.415 15.8428C68.5173 15.8428 67.0312 16.3978 65.957 17.5078C64.9186 18.6178 64.2383 20.4082 63.916 22.8789H76.4307ZM86.2061 2.79102C87.2803 2.54036 88.2292 2.32552 89.0527 2.14648C89.9121 1.93164 90.7178 1.7168 91.4697 1.50195C92.2575 1.28711 93.0094 1.07227 93.7256 0.857422C94.4417 0.642578 95.1937 0.391927 95.9814 0.105469L96.25 0.266602V36.8438C96.25 37.7031 96.3037 38.4014 96.4111 38.9385C96.5186 39.4398 96.7334 39.8516 97.0557 40.1738C97.3779 40.4603 97.8255 40.6751 98.3984 40.8184C99.0072 40.9616 99.7949 41.069 100.762 41.1406V42H86.3672V41.1406C87.334 41.0332 88.1217 40.9079 88.7305 40.7646C89.3392 40.5856 89.8226 40.335 90.1807 40.0127C90.5387 39.6546 90.7715 39.207 90.8789 38.6699C91.0221 38.1328 91.0938 37.4525 91.0938 36.6289V7.41016C91.0938 5.97786 90.8968 5.01107 90.5029 4.50977C90.1449 3.97266 89.4824 3.7041 88.5156 3.7041C88.2292 3.7041 87.9069 3.72201 87.5488 3.75781C87.2266 3.75781 86.9043 3.77572 86.582 3.81152H86.2061V2.79102ZM127.402 32.9766C126.901 33.9434 126.436 34.7848 126.006 35.501C125.612 36.1813 125.218 36.8079 124.824 37.3809C124.466 37.918 124.09 38.4014 123.696 38.8311C123.302 39.2607 122.873 39.6546 122.407 40.0127C120.259 41.7314 117.878 42.5908 115.264 42.5908C113.581 42.5908 112.023 42.2686 110.591 41.624C109.159 40.9437 107.923 39.9948 106.885 38.7773C105.882 37.5599 105.094 36.1276 104.521 34.4805C103.949 32.8333 103.662 31.0072 103.662 29.002C103.662 26.4596 104.092 24.1322 104.951 22.0195C105.846 19.8711 107.118 18.1165 108.765 16.7559C110.018 15.7174 111.343 14.9476 112.739 14.4463C114.172 13.9092 115.622 13.6406 117.09 13.6406C118.379 13.6406 119.596 13.8197 120.742 14.1777C121.888 14.5 122.891 14.9476 123.75 15.5205C124.609 16.0934 125.29 16.7738 125.791 17.5615C126.292 18.3135 126.543 19.1191 126.543 19.9785C126.543 20.6947 126.257 21.3213 125.684 21.8584C125.146 22.3955 124.484 22.6641 123.696 22.6641C122.98 22.6641 122.371 22.3955 121.87 21.8584C121.369 21.3213 120.993 20.6051 120.742 19.71L120.366 18.3672C120.08 17.2214 119.668 16.4515 119.131 16.0576C118.63 15.6637 117.824 15.4668 116.714 15.4668C115.461 15.4668 114.315 15.7354 113.276 16.2725C112.274 16.7738 111.414 17.5078 110.698 18.4746C109.982 19.4414 109.409 20.5872 108.979 21.9121C108.586 23.237 108.389 24.7051 108.389 26.3164C108.389 28.0352 108.621 29.6286 109.087 31.0967C109.552 32.5648 110.197 33.818 111.021 34.8564C111.844 35.8949 112.829 36.7184 113.975 37.3271C115.156 37.9001 116.445 38.1865 117.842 38.1865C119.596 38.1865 121.118 37.7747 122.407 36.9512C123.696 36.0918 125.075 34.5879 126.543 32.4395L127.402 32.9766ZM144.697 13.8018C146.667 13.8018 148.475 14.1419 150.122 14.8223C151.769 15.5026 153.184 16.4694 154.365 17.7227C155.583 18.9401 156.532 20.3903 157.212 22.0732C157.892 23.7562 158.232 25.6182 158.232 27.6592C158.232 29.8076 157.874 31.7949 157.158 33.6211C156.478 35.4115 155.529 36.987 154.312 38.3477C153.094 39.6725 151.644 40.7109 149.961 41.4629C148.314 42.2148 146.523 42.5908 144.59 42.5908C142.656 42.5908 140.866 42.2327 139.219 41.5166C137.572 40.8005 136.157 39.7979 134.976 38.5088C133.794 37.2197 132.863 35.6979 132.183 33.9434C131.502 32.1888 131.162 30.2731 131.162 28.1963C131.162 26.0837 131.484 24.1501 132.129 22.3955C132.809 20.6051 133.74 19.0833 134.922 17.8301C136.104 16.541 137.518 15.5563 139.165 14.876C140.848 14.1598 142.692 13.8018 144.697 13.8018ZM143.784 15.5205C141.636 15.5205 139.917 16.3978 138.628 18.1523C137.339 19.9069 136.694 22.2344 136.694 25.1348C136.694 27.319 136.927 29.4495 137.393 31.5264C137.858 33.5674 138.521 35.3936 139.38 37.0049C140.024 38.2581 140.884 39.2249 141.958 39.9053C143.032 40.5856 144.196 40.9258 145.449 40.9258C147.705 40.9258 149.46 39.9411 150.713 37.9717C152.002 35.9665 152.646 33.2272 152.646 29.7539C152.646 27.14 152.271 24.7051 151.519 22.4492C150.767 20.1934 149.746 18.4925 148.457 17.3467C147.777 16.7021 147.061 16.2367 146.309 15.9502C145.557 15.6637 144.715 15.5205 143.784 15.5205ZM161.187 16.541C162.046 16.3262 162.816 16.1113 163.496 15.8965C164.212 15.6816 164.91 15.4668 165.591 15.252C166.271 15.0371 166.934 14.8223 167.578 14.6074C168.258 14.3568 168.993 14.0882 169.78 13.8018L170.21 13.9092V18.5283C171.499 17.5615 172.591 16.7738 173.486 16.165C174.382 15.5205 175.169 15.0371 175.85 14.7148C176.566 14.3568 177.21 14.124 177.783 14.0166C178.356 13.8734 178.983 13.8018 179.663 13.8018C182.993 13.8018 185.16 15.5384 186.162 19.0117C187.881 17.1855 189.528 15.8607 191.104 15.0371C192.715 14.2135 194.416 13.8018 196.206 13.8018C200.968 13.8018 203.35 17.4183 203.35 24.6514V37.3271C203.35 39.6546 204.245 40.8721 206.035 40.9795L207.593 41.1406V42H194.165V41.1406C195.06 41.0332 195.758 40.9079 196.26 40.7646C196.797 40.5856 197.191 40.3529 197.441 40.0664C197.728 39.7441 197.907 39.3145 197.979 38.7773C198.086 38.2402 198.14 37.5241 198.14 36.6289V23.7383C198.14 22.4492 198.068 21.375 197.925 20.5156C197.782 19.6562 197.531 18.9759 197.173 18.4746C196.815 17.9375 196.331 17.5615 195.723 17.3467C195.15 17.096 194.434 16.9707 193.574 16.9707C192.142 16.9707 190.907 17.2751 189.868 17.8838C188.83 18.4567 187.845 19.4056 186.914 20.7305V36.1992C186.914 37.1302 186.968 37.918 187.075 38.5625C187.218 39.1712 187.451 39.6725 187.773 40.0664C188.132 40.4245 188.597 40.693 189.17 40.8721C189.743 41.0153 190.459 41.1048 191.318 41.1406V42H177.568V41.1406C178.428 41.069 179.126 40.9616 179.663 40.8184C180.236 40.6751 180.666 40.4424 180.952 40.1201C181.274 39.7979 181.489 39.3682 181.597 38.8311C181.704 38.2939 181.758 37.5957 181.758 36.7363V23.416C181.758 19.1191 180.433 16.9707 177.783 16.9707C176.637 16.9707 175.438 17.2214 174.185 17.7227C172.967 18.224 172 18.8327 171.284 19.5488C170.747 20.1576 170.479 20.5156 170.479 20.623V37.918C170.479 39.1354 170.747 39.959 171.284 40.3887C171.857 40.8184 172.967 41.069 174.614 41.1406V42H161.025V41.1406C161.885 41.1048 162.583 41.0153 163.12 40.8721C163.693 40.7288 164.141 40.4961 164.463 40.1738C164.785 39.8516 165 39.4219 165.107 38.8848C165.251 38.3118 165.322 37.6136 165.322 36.79V21.2676C165.322 19.7637 165.161 18.7432 164.839 18.2061C164.552 17.6331 163.997 17.3467 163.174 17.3467C162.816 17.3467 162.493 17.3825 162.207 17.4541C161.956 17.4899 161.616 17.5436 161.187 17.6152V16.541ZM233.75 32.3857C232.461 35.7516 230.706 38.2939 228.486 40.0127C226.302 41.7314 223.724 42.5908 220.752 42.5908C218.997 42.5908 217.404 42.2686 215.972 41.624C214.575 40.9795 213.376 40.0664 212.373 38.8848C211.37 37.7031 210.601 36.2708 210.063 34.5879C209.526 32.9049 209.258 31.0072 209.258 28.8945C209.258 26.6387 209.562 24.5798 210.171 22.7178C210.815 20.8558 211.693 19.2624 212.803 17.9375C213.949 16.5768 215.309 15.5205 216.885 14.7686C218.46 14.0166 220.197 13.6406 222.095 13.6406C223.706 13.6406 225.174 13.945 226.499 14.5537C227.86 15.1624 229.006 16.0218 229.937 17.1318C230.33 17.6331 230.653 18.1344 230.903 18.6357C231.19 19.137 231.423 19.6921 231.602 20.3008C231.816 20.9095 231.995 21.5898 232.139 22.3418C232.282 23.0938 232.425 23.9531 232.568 24.9199H213.716C213.787 26.8893 213.949 28.5186 214.199 29.8076C214.486 31.0609 214.933 32.2783 215.542 33.46C217.297 36.7542 219.875 38.4014 223.276 38.4014C225.246 38.4014 226.947 37.918 228.379 36.9512C229.847 35.9844 231.315 34.3372 232.783 32.0098L233.75 32.3857ZM226.338 22.8789C225.944 20.2292 225.299 18.403 224.404 17.4004C223.545 16.362 222.184 15.8428 220.322 15.8428C218.424 15.8428 216.938 16.3978 215.864 17.5078C214.826 18.6178 214.146 20.4082 213.823 22.8789H226.338ZM269.307 1.39453C274.642 1.39453 278.652 2.27181 281.338 4.02637C284.023 5.78092 285.366 8.37695 285.366 11.8145C285.366 13.0677 285.151 14.2493 284.722 15.3594C284.292 16.4336 283.683 17.3109 282.896 17.9912C282.502 18.3135 282.126 18.5999 281.768 18.8506C281.41 19.1012 280.998 19.334 280.532 19.5488C280.103 19.7279 279.583 19.9069 278.975 20.0859C278.402 20.265 277.721 20.4619 276.934 20.6768C277.936 20.8916 278.796 21.1064 279.512 21.3213C280.264 21.5361 280.926 21.7868 281.499 22.0732C282.072 22.3239 282.591 22.6104 283.057 22.9326C283.522 23.2549 283.988 23.6309 284.453 24.0605C286.458 25.8509 287.461 28.1605 287.461 30.9893C287.461 32.708 287.121 34.2477 286.44 35.6084C285.76 36.9691 284.775 38.1328 283.486 39.0996C282.197 40.0306 280.64 40.7467 278.813 41.248C276.987 41.7493 274.928 42 272.637 42H252.119V40.8721C253.372 40.8363 254.375 40.7467 255.127 40.6035C255.915 40.4245 256.523 40.138 256.953 39.7441C257.383 39.3503 257.669 38.8132 257.812 38.1328C257.956 37.4167 258.027 36.5036 258.027 35.3936V8.1084C258.027 6.96257 257.956 6.04948 257.812 5.36914C257.705 4.6888 257.437 4.15169 257.007 3.75781C256.577 3.36393 255.968 3.09538 255.181 2.95215C254.429 2.80892 253.408 2.7015 252.119 2.62988V1.39453H269.307ZM264.204 37.2197C264.204 38.2223 264.473 38.9027 265.01 39.2607C265.547 39.583 266.532 39.7441 267.964 39.7441C269.038 39.7441 269.987 39.7262 270.811 39.6904C271.67 39.6188 272.44 39.5293 273.12 39.4219C273.836 39.2786 274.481 39.0996 275.054 38.8848C275.627 38.6699 276.164 38.4193 276.665 38.1328C279.172 36.7005 280.425 34.3372 280.425 31.043C280.425 27.1758 278.652 24.5618 275.107 23.2012C274.535 22.9863 273.908 22.8073 273.228 22.6641C272.583 22.5208 271.831 22.4134 270.972 22.3418C270.148 22.2344 269.181 22.1628 268.071 22.127C266.961 22.0553 265.672 22.0195 264.204 22.0195V37.2197ZM270.112 19.5488C273.013 19.5488 275.233 18.9222 276.772 17.6689C278.348 16.3799 279.136 14.5179 279.136 12.083C279.136 9.29004 278.223 7.19531 276.396 5.79883C274.57 4.40234 271.867 3.7041 268.286 3.7041H265.601C264.67 3.7041 264.204 4.31283 264.204 5.53027V19.5488H270.112ZM292.402 17.1855C293.298 16.8633 294.121 16.5768 294.873 16.3262C295.625 16.0397 296.341 15.7712 297.021 15.5205C297.738 15.234 298.436 14.9655 299.116 14.7148C299.832 14.4284 300.602 14.124 301.426 13.8018L301.802 13.9092V19.5488C302.554 18.4388 303.234 17.5257 303.843 16.8096C304.451 16.0576 305.042 15.4668 305.615 15.0371C306.188 14.5716 306.743 14.2493 307.28 14.0703C307.853 13.8913 308.462 13.8018 309.106 13.8018C310.145 13.8018 310.968 14.1061 311.577 14.7148C312.186 15.2878 312.49 16.0576 312.49 17.0244C312.49 17.9196 312.275 18.6178 311.846 19.1191C311.416 19.5846 310.843 19.8174 310.127 19.8174C309.733 19.8174 309.339 19.7458 308.945 19.6025C308.587 19.4235 308.158 19.0833 307.656 18.582C307.334 18.2956 307.03 18.0807 306.743 17.9375C306.457 17.7943 306.224 17.7227 306.045 17.7227C305.615 17.7227 305.15 17.9017 304.648 18.2598C304.183 18.582 303.735 18.9938 303.306 19.4951C302.876 19.9964 302.518 20.5335 302.231 21.1064C301.945 21.6794 301.802 22.2165 301.802 22.7178V36.5215C301.802 37.3809 301.873 38.097 302.017 38.6699C302.16 39.2428 302.428 39.7083 302.822 40.0664C303.216 40.3887 303.753 40.6393 304.434 40.8184C305.114 40.9974 305.973 41.1048 307.012 41.1406V42H292.241V41.1406C293.208 40.9616 293.978 40.7826 294.551 40.6035C295.16 40.3887 295.607 40.138 295.894 39.8516C296.216 39.5651 296.413 39.1891 296.484 38.7236C296.592 38.2223 296.646 37.5957 296.646 36.8438V21.5361C296.646 20.1755 296.484 19.2266 296.162 18.6895C295.84 18.1165 295.303 17.8301 294.551 17.8301C294.157 17.8301 293.799 17.848 293.477 17.8838C293.19 17.9196 292.832 17.9912 292.402 18.0986V17.1855ZM323.394 13.9629V35.7695C323.394 36.8796 323.429 37.7747 323.501 38.4551C323.608 39.0996 323.823 39.6188 324.146 40.0127C324.468 40.3708 324.915 40.6214 325.488 40.7646C326.097 40.9079 326.921 41.0332 327.959 41.1406V42H313.403V41.1406C314.478 41.069 315.319 40.9616 315.928 40.8184C316.572 40.6393 317.056 40.3708 317.378 40.0127C317.736 39.6188 317.969 39.0996 318.076 38.4551C318.184 37.7747 318.237 36.8796 318.237 35.7695V21.5361C318.237 20.1755 318.076 19.2266 317.754 18.6895C317.467 18.1165 316.966 17.8301 316.25 17.8301C315.964 17.8301 315.623 17.848 315.229 17.8838C314.871 17.9196 314.495 17.9733 314.102 18.0449L313.672 18.0986V17.1855L323.125 13.8018L323.394 13.9629ZM320.332 0.105469C321.191 0.105469 321.925 0.427734 322.534 1.07227C323.143 1.68099 323.447 2.41504 323.447 3.27441C323.447 4.1696 323.143 4.92155 322.534 5.53027C321.961 6.10319 321.209 6.38965 320.278 6.38965C319.383 6.38965 318.649 6.10319 318.076 5.53027C317.503 4.92155 317.217 4.1696 317.217 3.27441C317.217 2.41504 317.521 1.68099 318.13 1.07227C318.739 0.427734 319.473 0.105469 320.332 0.105469ZM330.645 2.79102C331.719 2.54036 332.668 2.32552 333.491 2.14648C334.351 1.93164 335.156 1.7168 335.908 1.50195C336.696 1.28711 337.448 1.07227 338.164 0.857422C338.88 0.642578 339.632 0.391927 340.42 0.105469L340.688 0.266602V36.8438C340.688 37.7031 340.742 38.4014 340.85 38.9385C340.957 39.4398 341.172 39.8516 341.494 40.1738C341.816 40.4603 342.264 40.6751 342.837 40.8184C343.446 40.9616 344.233 41.069 345.2 41.1406V42H330.806V41.1406C331.772 41.0332 332.56 40.9079 333.169 40.7646C333.778 40.5856 334.261 40.335 334.619 40.0127C334.977 39.6546 335.21 39.207 335.317 38.6699C335.461 38.1328 335.532 37.4525 335.532 36.6289V7.41016C335.532 5.97786 335.335 5.01107 334.941 4.50977C334.583 3.97266 333.921 3.7041 332.954 3.7041C332.668 3.7041 332.345 3.72201 331.987 3.75781C331.665 3.75781 331.343 3.77572 331.021 3.81152H330.645V2.79102ZM347.725 2.79102C348.799 2.54036 349.748 2.32552 350.571 2.14648C351.431 1.93164 352.236 1.7168 352.988 1.50195C353.776 1.28711 354.528 1.07227 355.244 0.857422C355.96 0.642578 356.712 0.391927 357.5 0.105469L357.769 0.266602V36.8438C357.769 37.7031 357.822 38.4014 357.93 38.9385C358.037 39.4398 358.252 39.8516 358.574 40.1738C358.896 40.4603 359.344 40.6751 359.917 40.8184C360.526 40.9616 361.313 41.069 362.28 41.1406V42H347.886V41.1406C348.853 41.0332 349.64 40.9079 350.249 40.7646C350.858 40.5856 351.341 40.335 351.699 40.0127C352.057 39.6546 352.29 39.207 352.397 38.6699C352.541 38.1328 352.612 37.4525 352.612 36.6289V7.41016C352.612 5.97786 352.415 5.01107 352.021 4.50977C351.663 3.97266 351.001 3.7041 350.034 3.7041C349.748 3.7041 349.425 3.72201 349.067 3.75781C348.745 3.75781 348.423 3.77572 348.101 3.81152H347.725V2.79102ZM374.634 13.9629V35.7695C374.634 36.8796 374.67 37.7747 374.741 38.4551C374.849 39.0996 375.063 39.6188 375.386 40.0127C375.708 40.3708 376.156 40.6214 376.729 40.7646C377.337 40.9079 378.161 41.0332 379.199 41.1406V42H364.644V41.1406C365.718 41.069 366.559 40.9616 367.168 40.8184C367.812 40.6393 368.296 40.3708 368.618 40.0127C368.976 39.6188 369.209 39.0996 369.316 38.4551C369.424 37.7747 369.478 36.8796 369.478 35.7695V21.5361C369.478 20.1755 369.316 19.2266 368.994 18.6895C368.708 18.1165 368.206 17.8301 367.49 17.8301C367.204 17.8301 366.864 17.848 366.47 17.8838C366.112 17.9196 365.736 17.9733 365.342 18.0449L364.912 18.0986V17.1855L374.365 13.8018L374.634 13.9629ZM371.572 0.105469C372.432 0.105469 373.166 0.427734 373.774 1.07227C374.383 1.68099 374.688 2.41504 374.688 3.27441C374.688 4.1696 374.383 4.92155 373.774 5.53027C373.201 6.10319 372.45 6.38965 371.519 6.38965C370.623 6.38965 369.889 6.10319 369.316 5.53027C368.743 4.92155 368.457 4.1696 368.457 3.27441C368.457 2.41504 368.761 1.68099 369.37 1.07227C369.979 0.427734 370.713 0.105469 371.572 0.105469ZM403.315 35.5547C403.315 36.9154 403.441 37.8643 403.691 38.4014C403.942 38.9027 404.425 39.1533 405.142 39.1533C405.965 39.1533 406.86 38.7773 407.827 38.0254V39.583C406.789 40.7288 405.876 41.5166 405.088 41.9463C404.3 42.376 403.387 42.5908 402.349 42.5908C401.095 42.5908 400.164 42.2507 399.556 41.5703C398.983 40.8542 398.625 39.6725 398.481 38.0254C396.619 39.6367 394.99 40.8005 393.594 41.5166C392.197 42.2327 390.837 42.5908 389.512 42.5908C387.578 42.5908 386.003 41.9821 384.785 40.7646C383.604 39.5472 383.013 37.9717 383.013 36.0381C383.013 35.0713 383.192 34.1045 383.55 33.1377C383.944 32.1351 384.499 31.3294 385.215 30.7207C385.859 30.1478 386.45 29.6644 386.987 29.2705C387.56 28.8408 388.294 28.4111 389.189 27.9814C390.085 27.516 391.248 26.9967 392.681 26.4238C394.113 25.8509 396.011 25.0811 398.374 24.1143V20.1934C398.374 18.5104 397.962 17.2393 397.139 16.3799C396.351 15.5205 395.205 15.0908 393.701 15.0908C392.448 15.0908 391.392 15.3952 390.532 16.0039C389.709 16.5768 389.297 17.2751 389.297 18.0986C389.297 18.4209 389.333 18.8327 389.404 19.334C389.512 19.8353 389.565 20.2471 389.565 20.5693C389.565 21.2855 389.279 21.8942 388.706 22.3955C388.169 22.8968 387.542 23.1475 386.826 23.1475C386.11 23.1475 385.483 22.8968 384.946 22.3955C384.445 21.8584 384.194 21.2318 384.194 20.5156C384.194 19.7279 384.409 18.9222 384.839 18.0986C385.304 17.2751 385.931 16.541 386.719 15.8965C387.542 15.1803 388.634 14.6253 389.995 14.2314C391.392 13.8376 392.896 13.6406 394.507 13.6406C396.369 13.6406 397.926 13.9629 399.18 14.6074C400.469 15.2161 401.453 16.0755 402.134 17.1855C402.563 17.9017 402.868 18.7432 403.047 19.71C403.226 20.641 403.315 21.9121 403.315 23.5234V35.5547ZM398.374 25.6182C396.512 26.2985 394.919 26.9609 393.594 27.6055C392.305 28.2142 391.248 28.8587 390.425 29.5391C389.637 30.1836 389.064 30.8818 388.706 31.6338C388.348 32.3857 388.169 33.2093 388.169 34.1045V34.373C388.169 35.0176 388.276 35.6442 388.491 36.2529C388.706 36.8258 388.993 37.3271 389.351 37.7568C389.744 38.1865 390.192 38.5267 390.693 38.7773C391.195 39.028 391.714 39.1533 392.251 39.1533C392.896 39.1533 393.612 39.028 394.399 38.7773C395.223 38.4909 395.993 38.1507 396.709 37.7568C397.425 37.363 397.873 36.9512 398.052 36.5215C398.267 36.0918 398.374 35.4115 398.374 34.4805V25.6182ZM408.955 16.541C410.638 16.0755 412.088 15.6458 413.306 15.252C414.559 14.8581 415.92 14.3747 417.388 13.8018L417.871 13.9092V18.7969C418.91 17.8301 419.823 17.0244 420.61 16.3799C421.398 15.7354 422.114 15.234 422.759 14.876C423.439 14.4821 424.084 14.2135 424.692 14.0703C425.337 13.8913 426.017 13.8018 426.733 13.8018C428.989 13.8018 430.762 14.6074 432.051 16.2188C433.34 17.8301 433.984 20.0859 433.984 22.9863V37.0586C433.984 38.5267 434.235 39.5293 434.736 40.0664C435.238 40.6035 436.222 40.9616 437.69 41.1406V42H424.961V41.1406C425.713 41.069 426.34 40.9437 426.841 40.7646C427.342 40.5856 427.736 40.2992 428.022 39.9053C428.345 39.5114 428.56 38.9922 428.667 38.3477C428.774 37.7031 428.828 36.8975 428.828 35.9307V23.0938C428.828 19.1549 427.342 17.1855 424.37 17.1855C423.869 17.1855 423.385 17.2393 422.92 17.3467C422.454 17.4541 421.971 17.6331 421.47 17.8838C421.004 18.1344 420.485 18.4925 419.912 18.958C419.375 19.4235 418.73 19.9964 417.979 20.6768V37.918C417.979 39.028 418.265 39.8158 418.838 40.2812C419.411 40.7109 420.485 40.9974 422.061 41.1406V42H409.062V41.1406C409.85 41.069 410.477 40.9616 410.942 40.8184C411.444 40.6393 411.838 40.3708 412.124 40.0127C412.41 39.6546 412.607 39.207 412.715 38.6699C412.822 38.097 412.876 37.3809 412.876 36.5215V21.2676C412.876 19.7637 412.715 18.7432 412.393 18.2061C412.07 17.6331 411.479 17.3467 410.62 17.3467C409.976 17.3467 409.421 17.4362 408.955 17.6152V16.541ZM454.287 16.3262H448.057V33.9434C448.057 35.9128 448.307 37.3271 448.809 38.1865C449.31 39.0101 450.116 39.4219 451.226 39.4219C451.942 39.4219 452.568 39.2786 453.105 38.9922C453.643 38.6699 454.269 38.097 454.985 37.2734L455.737 38.0254C453.804 41.069 451.333 42.5908 448.325 42.5908C444.709 42.5908 442.9 39.9948 442.9 34.8027V16.3262H439.678C439.535 16.2904 439.463 16.165 439.463 15.9502C439.463 15.5921 439.803 15.1982 440.483 14.7686C442.095 13.8376 444.082 11.6533 446.445 8.21582C446.624 7.92936 446.821 7.66081 447.036 7.41016C447.287 7.1237 447.502 6.81934 447.681 6.49707C447.824 6.49707 447.913 6.55078 447.949 6.6582C448.021 6.76562 448.057 6.98047 448.057 7.30273V14.3926H454.287V16.3262ZM474.053 22.7715C473.372 20.0143 472.531 18.0628 471.528 16.917C470.526 15.7712 469.147 15.1982 467.393 15.1982C465.96 15.1982 464.814 15.5921 463.955 16.3799C463.096 17.1318 462.666 18.1344 462.666 19.3877C462.666 21.1423 463.543 22.5387 465.298 23.5771L471.904 27.498C473.766 28.6081 475.091 29.7181 475.879 30.8281C476.667 31.9023 477.061 33.2093 477.061 34.749C477.061 35.8232 476.828 36.8438 476.362 37.8105C475.897 38.7773 475.27 39.6188 474.482 40.335C473.73 41.0153 472.835 41.5703 471.797 42C470.758 42.3939 469.648 42.5908 468.467 42.5908C467.822 42.5908 467.124 42.5371 466.372 42.4297C465.62 42.3581 464.797 42.2148 463.901 42C463.185 41.821 462.63 41.6956 462.236 41.624C461.842 41.5524 461.466 41.5166 461.108 41.5166C460.75 41.5166 460.482 41.5703 460.303 41.6777C460.124 41.7852 459.927 41.9821 459.712 42.2686H458.906V32.708H459.873C460.231 34.2835 460.643 35.6084 461.108 36.6826C461.574 37.7568 462.111 38.6341 462.72 39.3145C463.328 39.9948 464.045 40.4961 464.868 40.8184C465.692 41.1048 466.623 41.248 467.661 41.248C469.272 41.248 470.526 40.8542 471.421 40.0664C472.352 39.2786 472.817 38.2044 472.817 36.8438C472.817 35.0176 471.743 33.4958 469.595 32.2783L466.05 30.2373C464.725 29.4854 463.597 28.7692 462.666 28.0889C461.771 27.4085 461.037 26.7282 460.464 26.0479C459.891 25.3317 459.479 24.5977 459.229 23.8457C458.978 23.0938 458.853 22.2881 458.853 21.4287C458.853 20.3187 459.049 19.2982 459.443 18.3672C459.873 17.4362 460.446 16.6305 461.162 15.9502C461.914 15.2699 462.809 14.7507 463.848 14.3926C464.886 14.0345 466.032 13.8555 467.285 13.8555C468.717 13.8555 470.096 14.1061 471.421 14.6074C472.173 14.9297 472.746 15.0908 473.14 15.0908C473.283 15.0908 473.39 15.055 473.462 14.9834C473.534 14.9118 473.713 14.7507 473.999 14.5L474.053 14.3926H474.805L475.02 22.7715H474.053ZM506.44 31.2578L505.903 24.5977C505.796 23.7025 505.706 22.7894 505.635 21.8584C505.563 20.8916 505.438 19.9427 505.259 19.0117C505.187 18.5462 505.133 18.224 505.098 18.0449C505.098 17.8659 505.08 17.7227 505.044 17.6152C505.044 17.472 505.026 17.3109 504.99 17.1318C504.954 16.9528 504.919 16.6305 504.883 16.165C504.704 14.9834 504.525 13.8376 504.346 12.7275C504.202 11.6175 504.077 10.5791 503.97 9.6123C503.862 8.64551 503.773 7.78613 503.701 7.03418C503.63 6.28223 503.594 5.69141 503.594 5.26172C503.594 3.79362 503.88 2.64779 504.453 1.82422C505.062 1.00065 505.885 0.588867 506.924 0.588867C509.036 0.588867 510.093 2.25391 510.093 5.58398C510.093 5.97786 510.093 6.35384 510.093 6.71191C510.093 7.06999 510.075 7.41016 510.039 7.73242L507.246 31.2578H506.44ZM506.924 36.0381C507.819 36.0381 508.571 36.3783 509.18 37.0586C509.788 37.7031 510.093 38.4909 510.093 39.4219C510.093 40.3171 509.788 41.069 509.18 41.6777C508.571 42.2507 507.801 42.5371 506.87 42.5371C505.939 42.5371 505.151 42.2507 504.507 41.6777C503.898 41.069 503.594 40.2992 503.594 39.3682C503.594 38.4372 503.916 37.6494 504.561 37.0049C505.205 36.3604 505.993 36.0381 506.924 36.0381Z" fill="#FFF500"/>
</svg>
