<svg width="1440" height="804" viewBox="0 0 1440 804" fill="none" xmlns="http://www.w3.org/2000/svg">
<rect x="0.5" y="0.5" width="1439" height="803" fill="url(#paint0_linear_8_2)"/>
<rect x="0.5" y="0.5" width="1439" height="803" stroke="black"/>
<path d="M593.394 181.312C593.286 180.223 592.823 179.378 592.004 178.775C591.186 178.172 590.075 177.871 588.671 177.871C587.718 177.871 586.912 178.006 586.256 178.276C585.599 178.536 585.095 178.901 584.744 179.369C584.402 179.836 584.232 180.367 584.232 180.961C584.214 181.456 584.317 181.888 584.542 182.256C584.776 182.625 585.095 182.945 585.5 183.214C585.905 183.475 586.373 183.705 586.903 183.903C587.434 184.092 588.001 184.254 588.604 184.388L591.087 184.982C592.292 185.252 593.399 185.612 594.406 186.062C595.414 186.512 596.286 187.065 597.024 187.722C597.762 188.378 598.333 189.152 598.738 190.043C599.152 190.933 599.363 191.954 599.372 193.106C599.363 194.797 598.931 196.263 598.077 197.505C597.231 198.737 596.008 199.696 594.406 200.379C592.814 201.054 590.893 201.391 588.644 201.391C586.413 201.391 584.47 201.049 582.815 200.366C581.168 199.682 579.882 198.67 578.955 197.33C578.038 195.98 577.556 194.311 577.511 192.323H583.165C583.228 193.25 583.494 194.023 583.962 194.644C584.438 195.256 585.073 195.719 585.864 196.034C586.665 196.34 587.569 196.493 588.577 196.493C589.566 196.493 590.425 196.349 591.154 196.061C591.892 195.773 592.463 195.373 592.868 194.86C593.273 194.347 593.475 193.758 593.475 193.092C593.475 192.472 593.291 191.95 592.922 191.527C592.562 191.104 592.031 190.744 591.33 190.447C590.637 190.151 589.787 189.881 588.779 189.638L585.77 188.882C583.44 188.315 581.6 187.429 580.251 186.224C578.901 185.018 578.231 183.394 578.24 181.352C578.231 179.679 578.676 178.217 579.576 176.967C580.485 175.716 581.731 174.74 583.314 174.038C584.897 173.337 586.696 172.986 588.712 172.986C590.763 172.986 592.553 173.337 594.082 174.038C595.621 174.74 596.817 175.716 597.672 176.967C598.527 178.217 598.967 179.665 598.994 181.312H593.394ZM612.64 201.405C610.508 201.405 608.673 200.973 607.135 200.109C605.605 199.237 604.427 198.004 603.599 196.412C602.772 194.811 602.358 192.917 602.358 190.731C602.358 188.599 602.772 186.728 603.599 185.117C604.427 183.507 605.592 182.252 607.094 181.352C608.606 180.453 610.378 180.003 612.411 180.003C613.778 180.003 615.051 180.223 616.23 180.664C617.417 181.096 618.452 181.748 619.334 182.621C620.224 183.493 620.917 184.591 621.412 185.913C621.907 187.227 622.154 188.765 622.154 190.528V192.107H604.652V188.545H616.743C616.743 187.717 616.563 186.984 616.203 186.345C615.843 185.706 615.344 185.207 614.705 184.847C614.075 184.478 613.342 184.294 612.506 184.294C611.633 184.294 610.859 184.496 610.184 184.901C609.519 185.297 608.997 185.832 608.619 186.507C608.241 187.173 608.048 187.915 608.039 188.734V192.121C608.039 193.146 608.228 194.032 608.606 194.779C608.992 195.526 609.537 196.102 610.238 196.506C610.94 196.911 611.772 197.114 612.735 197.114C613.374 197.114 613.958 197.024 614.489 196.844C615.02 196.664 615.474 196.394 615.852 196.034C616.23 195.674 616.518 195.233 616.716 194.712L622.032 195.062C621.763 196.34 621.209 197.455 620.373 198.409C619.545 199.354 618.474 200.091 617.161 200.622C615.857 201.144 614.35 201.405 612.64 201.405ZM631.654 173.364V201H625.905V173.364H631.654ZM645.705 201.405C643.573 201.405 641.738 200.973 640.199 200.109C638.67 199.237 637.491 198.004 636.664 196.412C635.836 194.811 635.422 192.917 635.422 190.731C635.422 188.599 635.836 186.728 636.664 185.117C637.491 183.507 638.656 182.252 640.159 181.352C641.67 180.453 643.442 180.003 645.475 180.003C646.843 180.003 648.116 180.223 649.294 180.664C650.482 181.096 651.516 181.748 652.398 182.621C653.289 183.493 653.981 184.591 654.476 185.913C654.971 187.227 655.218 188.765 655.218 190.528V192.107H637.716V188.545H649.807C649.807 187.717 649.627 186.984 649.267 186.345C648.908 185.706 648.408 185.207 647.77 184.847C647.14 184.478 646.407 184.294 645.57 184.294C644.697 184.294 643.924 184.496 643.249 184.901C642.583 185.297 642.061 185.832 641.684 186.507C641.306 187.173 641.112 187.915 641.103 188.734V192.121C641.103 193.146 641.292 194.032 641.67 194.779C642.057 195.526 642.601 196.102 643.303 196.506C644.005 196.911 644.837 197.114 645.799 197.114C646.438 197.114 647.023 197.024 647.554 196.844C648.084 196.664 648.539 196.394 648.917 196.034C649.294 195.674 649.582 195.233 649.78 194.712L655.097 195.062C654.827 196.34 654.274 197.455 653.437 198.409C652.609 199.354 651.539 200.091 650.225 200.622C648.921 201.144 647.414 201.405 645.705 201.405ZM668.335 201.405C666.212 201.405 664.386 200.955 662.856 200.055C661.336 199.147 660.166 197.887 659.348 196.277C658.538 194.667 658.133 192.813 658.133 190.717C658.133 188.594 658.542 186.732 659.361 185.131C660.189 183.52 661.363 182.265 662.883 181.366C664.404 180.457 666.212 180.003 668.308 180.003C670.116 180.003 671.699 180.331 673.058 180.988C674.416 181.645 675.491 182.567 676.283 183.754C677.075 184.942 677.511 186.336 677.592 187.938H672.167C672.014 186.903 671.609 186.071 670.953 185.441C670.305 184.802 669.455 184.483 668.402 184.483C667.512 184.483 666.734 184.726 666.068 185.212C665.411 185.688 664.898 186.386 664.529 187.303C664.161 188.221 663.976 189.332 663.976 190.636C663.976 191.959 664.156 193.083 664.516 194.01C664.885 194.937 665.402 195.643 666.068 196.129C666.734 196.614 667.512 196.857 668.402 196.857C669.059 196.857 669.648 196.722 670.17 196.452C670.701 196.183 671.137 195.791 671.479 195.278C671.83 194.757 672.059 194.131 672.167 193.403H677.592C677.502 194.986 677.07 196.38 676.297 197.586C675.532 198.782 674.475 199.718 673.125 200.393C671.776 201.067 670.179 201.405 668.335 201.405ZM692.297 180.273V184.591H679.815V180.273H692.297ZM682.649 175.307H688.398V194.631C688.398 195.161 688.479 195.575 688.64 195.872C688.802 196.16 689.027 196.362 689.315 196.479C689.612 196.596 689.954 196.655 690.341 196.655C690.611 196.655 690.881 196.632 691.15 196.587C691.42 196.533 691.627 196.493 691.771 196.466L692.675 200.744C692.387 200.834 691.983 200.937 691.461 201.054C690.939 201.18 690.305 201.256 689.558 201.283C688.173 201.337 686.958 201.153 685.915 200.73C684.88 200.307 684.075 199.651 683.499 198.76C682.923 197.869 682.64 196.745 682.649 195.386V175.307ZM719.937 181.312C719.829 180.223 719.366 179.378 718.547 178.775C717.729 178.172 716.618 177.871 715.214 177.871C714.261 177.871 713.455 178.006 712.799 178.276C712.142 178.536 711.638 178.901 711.287 179.369C710.945 179.836 710.775 180.367 710.775 180.961C710.757 181.456 710.86 181.888 711.085 182.256C711.319 182.625 711.638 182.945 712.043 183.214C712.448 183.475 712.916 183.705 713.446 183.903C713.977 184.092 714.544 184.254 715.147 184.388L717.63 184.982C718.835 185.252 719.942 185.612 720.949 186.062C721.957 186.512 722.829 187.065 723.567 187.722C724.305 188.378 724.876 189.152 725.281 190.043C725.695 190.933 725.906 191.954 725.915 193.106C725.906 194.797 725.474 196.263 724.62 197.505C723.774 198.737 722.551 199.696 720.949 200.379C719.357 201.054 717.436 201.391 715.187 201.391C712.956 201.391 711.013 201.049 709.358 200.366C707.711 199.682 706.425 198.67 705.498 197.33C704.581 195.98 704.099 194.311 704.054 192.323H709.708C709.771 193.25 710.037 194.023 710.505 194.644C710.981 195.256 711.616 195.719 712.407 196.034C713.208 196.34 714.112 196.493 715.12 196.493C716.109 196.493 716.968 196.349 717.697 196.061C718.435 195.773 719.006 195.373 719.411 194.86C719.816 194.347 720.018 193.758 720.018 193.092C720.018 192.472 719.834 191.95 719.465 191.527C719.105 191.104 718.574 190.744 717.873 190.447C717.18 190.151 716.33 189.881 715.322 189.638L712.313 188.882C709.983 188.315 708.143 187.429 706.794 186.224C705.444 185.018 704.774 183.394 704.783 181.352C704.774 179.679 705.219 178.217 706.119 176.967C707.028 175.716 708.274 174.74 709.857 174.038C711.44 173.337 713.239 172.986 715.255 172.986C717.306 172.986 719.096 173.337 720.625 174.038C722.164 174.74 723.36 175.716 724.215 176.967C725.069 178.217 725.51 179.665 725.537 181.312H719.937ZM743.029 192.175V180.273H748.778V201H743.259V197.235H743.043C742.575 198.45 741.797 199.426 740.708 200.163C739.629 200.901 738.311 201.27 736.754 201.27C735.369 201.27 734.15 200.955 733.097 200.325C732.045 199.696 731.222 198.8 730.628 197.64C730.043 196.479 729.746 195.089 729.737 193.47V180.273H735.486V192.445C735.495 193.668 735.823 194.635 736.471 195.346C737.119 196.057 737.987 196.412 739.075 196.412C739.768 196.412 740.416 196.254 741.019 195.94C741.621 195.616 742.107 195.139 742.476 194.509C742.854 193.879 743.038 193.101 743.029 192.175ZM753.484 201V173.364H759.233V183.754H759.408C759.66 183.196 760.024 182.63 760.501 182.054C760.987 181.469 761.617 180.983 762.39 180.597C763.173 180.201 764.145 180.003 765.305 180.003C766.816 180.003 768.211 180.399 769.488 181.19C770.766 181.973 771.787 183.156 772.551 184.739C773.316 186.314 773.699 188.288 773.699 190.663C773.699 192.975 773.325 194.928 772.578 196.52C771.841 198.103 770.833 199.304 769.556 200.123C768.287 200.933 766.866 201.337 765.292 201.337C764.176 201.337 763.227 201.153 762.444 200.784C761.671 200.415 761.036 199.952 760.542 199.394C760.047 198.827 759.669 198.256 759.408 197.68H759.152V201H753.484ZM759.111 190.636C759.111 191.869 759.282 192.944 759.624 193.862C759.966 194.779 760.461 195.494 761.108 196.007C761.756 196.511 762.543 196.763 763.47 196.763C764.405 196.763 765.197 196.506 765.845 195.994C766.493 195.472 766.983 194.752 767.316 193.835C767.658 192.908 767.828 191.842 767.828 190.636C767.828 189.44 767.662 188.387 767.329 187.479C766.996 186.57 766.506 185.859 765.858 185.347C765.211 184.834 764.414 184.577 763.47 184.577C762.534 184.577 761.743 184.825 761.095 185.32C760.456 185.814 759.966 186.516 759.624 187.425C759.282 188.333 759.111 189.404 759.111 190.636ZM777.534 180.273H783.283V202.026C783.283 203.627 782.968 204.922 782.338 205.912C781.709 206.902 780.804 207.626 779.626 208.085C778.456 208.543 777.057 208.773 775.429 208.773C775.231 208.773 775.042 208.768 774.862 208.759C774.673 208.759 774.476 208.755 774.269 208.746V204.252C774.422 204.261 774.557 204.266 774.673 204.266C774.781 204.275 774.898 204.279 775.024 204.279C775.951 204.279 776.599 204.081 776.968 203.685C777.345 203.299 777.534 202.714 777.534 201.931V180.273ZM780.395 177.601C779.549 177.601 778.821 177.317 778.209 176.751C777.597 176.175 777.291 175.487 777.291 174.686C777.291 173.894 777.597 173.215 778.209 172.648C778.821 172.073 779.549 171.785 780.395 171.785C781.259 171.785 781.992 172.073 782.595 172.648C783.206 173.215 783.512 173.894 783.512 174.686C783.512 175.487 783.206 176.175 782.595 176.751C781.992 177.317 781.259 177.601 780.395 177.601ZM797.334 201.405C795.202 201.405 793.366 200.973 791.828 200.109C790.299 199.237 789.12 198.004 788.293 196.412C787.465 194.811 787.051 192.917 787.051 190.731C787.051 188.599 787.465 186.728 788.293 185.117C789.12 183.507 790.285 182.252 791.788 181.352C793.299 180.453 795.071 180.003 797.104 180.003C798.472 180.003 799.745 180.223 800.923 180.664C802.111 181.096 803.145 181.748 804.027 182.621C804.918 183.493 805.61 184.591 806.105 185.913C806.6 187.227 806.847 188.765 806.847 190.528V192.107H789.345V188.545H801.436C801.436 187.717 801.256 186.984 800.896 186.345C800.536 185.706 800.037 185.207 799.398 184.847C798.769 184.478 798.036 184.294 797.199 184.294C796.326 184.294 795.553 184.496 794.878 184.901C794.212 185.297 793.69 185.832 793.312 186.507C792.935 187.173 792.741 187.915 792.732 188.734V192.121C792.732 193.146 792.921 194.032 793.299 194.779C793.686 195.526 794.23 196.102 794.932 196.506C795.634 196.911 796.466 197.114 797.428 197.114C798.067 197.114 798.652 197.024 799.183 196.844C799.713 196.664 800.168 196.394 800.545 196.034C800.923 195.674 801.211 195.233 801.409 194.712L806.726 195.062C806.456 196.34 805.903 197.455 805.066 198.409C804.238 199.354 803.168 200.091 801.854 200.622C800.55 201.144 799.043 201.405 797.334 201.405ZM819.964 201.405C817.841 201.405 816.014 200.955 814.485 200.055C812.965 199.147 811.795 197.887 810.977 196.277C810.167 194.667 809.762 192.813 809.762 190.717C809.762 188.594 810.171 186.732 810.99 185.131C811.818 183.52 812.992 182.265 814.512 181.366C816.032 180.457 817.841 180.003 819.937 180.003C821.745 180.003 823.328 180.331 824.687 180.988C826.045 181.645 827.12 182.567 827.912 183.754C828.704 184.942 829.14 186.336 829.221 187.938H823.796C823.643 186.903 823.238 186.071 822.582 185.441C821.934 184.802 821.084 184.483 820.031 184.483C819.141 184.483 818.362 184.726 817.697 185.212C817.04 185.688 816.527 186.386 816.158 187.303C815.79 188.221 815.605 189.332 815.605 190.636C815.605 191.959 815.785 193.083 816.145 194.01C816.514 194.937 817.031 195.643 817.697 196.129C818.362 196.614 819.141 196.857 820.031 196.857C820.688 196.857 821.277 196.722 821.799 196.452C822.33 196.183 822.766 195.791 823.108 195.278C823.459 194.757 823.688 194.131 823.796 193.403H829.221C829.131 194.986 828.699 196.38 827.925 197.586C827.161 198.782 826.104 199.718 824.754 200.393C823.405 201.067 821.808 201.405 819.964 201.405ZM843.926 180.273V184.591H831.444V180.273H843.926ZM834.278 175.307H840.026V194.631C840.026 195.161 840.107 195.575 840.269 195.872C840.431 196.16 840.656 196.362 840.944 196.479C841.241 196.596 841.583 196.655 841.97 196.655C842.24 196.655 842.509 196.632 842.779 196.587C843.049 196.533 843.256 196.493 843.4 196.466L844.304 200.744C844.016 200.834 843.611 200.937 843.09 201.054C842.568 201.18 841.934 201.256 841.187 201.283C839.802 201.337 838.587 201.153 837.544 200.73C836.509 200.307 835.704 199.651 835.128 198.76C834.552 197.869 834.269 196.745 834.278 195.386V175.307Z" fill="#470858"/>
<defs>
<linearGradient id="paint0_linear_8_2" x1="24" y1="804" x2="1190.74" y2="-270.623" gradientUnits="userSpaceOnUse">
<stop stop-color="#A60169"/>
<stop offset="1" stop-color="#000B4A"/>
</linearGradient>
</defs>
</svg>
