<svg width="1440" height="804" viewBox="0 0 1440 804" fill="none" xmlns="http://www.w3.org/2000/svg">
<rect x="0.5" y="0.5" width="1439" height="803" fill="url(#paint0_linear_4_2)"/>
<rect x="0.5" y="0.5" width="1439" height="803" stroke="black"/>
<path d="M1271.79 552.166V550.403C1271.82 544.355 1272.36 539.533 1273.4 535.938C1274.47 532.344 1276.02 529.44 1278.06 527.228C1280.1 525.016 1282.56 523.011 1285.43 521.214C1287.57 519.831 1289.49 518.397 1291.18 516.911C1292.87 515.424 1294.22 513.782 1295.22 511.985C1296.23 510.153 1296.73 508.114 1296.73 505.867C1296.73 503.482 1296.16 501.391 1295.02 499.594C1293.88 497.796 1292.34 496.414 1290.4 495.446C1288.5 494.478 1286.39 493.994 1284.08 493.994C1281.83 493.994 1279.71 494.495 1277.7 495.498C1275.7 496.466 1274.05 497.917 1272.77 499.853C1271.5 501.754 1270.8 504.122 1270.7 506.956H1249.55C1249.72 500.043 1251.38 494.34 1254.52 489.847C1257.67 485.319 1261.84 481.949 1267.02 479.737C1272.2 477.49 1277.92 476.366 1284.18 476.366C1291.06 476.366 1297.14 477.507 1302.43 479.788C1307.72 482.035 1311.87 485.301 1314.87 489.587C1317.88 493.873 1319.38 499.041 1319.38 505.089C1319.38 509.134 1318.71 512.728 1317.36 515.874C1316.05 518.984 1314.2 521.75 1311.82 524.169C1309.43 526.554 1306.61 528.714 1303.36 530.65C1300.63 532.274 1298.39 533.968 1296.62 535.731C1294.9 537.494 1293.6 539.533 1292.74 541.849C1291.91 544.165 1291.47 547.016 1291.44 550.403V552.166H1271.79ZM1282.06 585.348C1278.6 585.348 1275.64 584.138 1273.19 581.719C1270.77 579.265 1269.58 576.327 1269.61 572.905C1269.58 569.518 1270.77 566.614 1273.19 564.195C1275.64 561.775 1278.6 560.565 1282.06 560.565C1285.34 560.565 1288.23 561.775 1290.71 564.195C1293.2 566.614 1294.46 569.518 1294.5 572.905C1294.46 575.186 1293.86 577.277 1292.68 579.178C1291.54 581.045 1290.04 582.548 1288.17 583.689C1286.31 584.795 1284.27 585.348 1282.06 585.348Z" fill="white" fill-opacity="0.17"/>
<ellipse cx="205.123" cy="115.636" rx="4.94688" ry="4.63636" fill="#D9D9D9" fill-opacity="0.43"/>
<ellipse cx="204.876" cy="158.523" rx="3.71016" ry="3.47727" fill="#D9D9D9" fill-opacity="0.43"/>
<rect x="204.133" y="160.145" width="49.1455" height="1.97875" transform="rotate(-90 204.133 160.145)" fill="#976092"/>
<ellipse cx="234.31" cy="120.273" rx="4.94688" ry="4.63636" fill="#D9D9D9" fill-opacity="0.43"/>
<ellipse cx="177.42" cy="127.227" rx="7.42033" ry="6.95455" fill="#D9D9D9" fill-opacity="0.43"/>
<rect x="188.798" y="146.236" width="34.6282" height="1.85455" fill="#976092"/>
<rect width="29.0233" height="1.9618" transform="matrix(0.395869 -0.918307 0.935197 0.354127 221.448 147.582)" fill="#976092"/>
<rect width="17.4143" height="1.95206" transform="matrix(-0.493443 -0.869778 0.895023 -0.44602 188.356 147.451)" fill="#976092"/>
<ellipse cx="4.94687" cy="4.63638" rx="4.94687" ry="4.63638" transform="matrix(-0.999975 -0.00703735 0.00801151 -0.999968 181.377 157.618)" fill="#D9D9D9" fill-opacity="0.43"/>
<ellipse cx="7.4203" cy="6.95457" rx="7.4203" ry="6.95457" transform="matrix(-0.999975 -0.00703735 0.00801151 -0.999968 240.775 153.4)" fill="#D9D9D9" fill-opacity="0.43"/>
<rect width="34.6281" height="1.85455" transform="matrix(-0.999975 -0.00703735 0.00801151 -0.999968 222.186 127.305)" fill="#976092"/>
<rect width="29.0234" height="1.96179" transform="matrix(-0.403214 0.915493 -0.932336 -0.360699 189.548 125.729)" fill="#976092"/>
<rect width="17.4143" height="1.95205" transform="matrix(0.48646 0.873224 -0.898573 0.43971 222.637 126.093)" fill="#976092"/>
<path d="M175.337 627.245V553.83H193.898V627.245H175.337ZM147.91 599.818V581.257H221.325V599.818H147.91Z" fill="white" fill-opacity="0.52"/>
<path d="M225.562 637.782V583.978H239.165V637.782H225.562ZM205.461 617.682V604.079H259.265V617.682H205.461Z" fill="white" fill-opacity="0.08"/>
<path d="M163.429 604.447V610.83H131.055V604.447H163.429Z" fill="white" fill-opacity="0.49"/>
<path d="M1194 165H1293C1295.76 165 1298 167.239 1298 170V213.154C1298 215.915 1295.76 218.154 1293 218.154H1270.67C1264.59 218.154 1259.67 223.079 1259.67 229.154L1259.67 241.777L1239.17 221.361C1237.11 219.307 1234.32 218.154 1231.41 218.154H1194C1191.24 218.154 1189 215.915 1189 213.154V170C1189 167.239 1191.24 165 1194 165Z" fill="white" fill-opacity="0.06" stroke="#EDEDED" stroke-width="6"/>
<path d="M866.897 241.598C864.281 241.09 861.376 241.261 857.5 242.078V211.621C861.093 211.685 863.786 211.987 866.281 212.615C868.893 213.272 871.31 214.292 874.338 215.799L874.636 215.947L874.888 215.729C877.199 213.731 879.413 212.61 882.18 212.03C884.874 211.466 888.107 211.411 892.5 211.593V242.048C889.392 241.252 886.787 241.087 884.063 241.581C881.238 242.092 878.316 243.307 874.6 245.198C871.892 243.335 869.57 242.116 866.897 241.598Z" fill="white" stroke="white"/>
<path d="M868.436 244.822C866.298 244.313 863.937 244.479 860.833 245.27V214.844C863.703 214.911 865.855 215.212 867.848 215.828C869.958 216.48 871.917 217.493 874.382 218.998L874.728 219.21L875.006 218.914C876.884 216.921 878.67 215.817 880.892 215.246C883.044 214.692 885.633 214.632 889.167 214.809V245.231C886.676 244.468 884.562 244.313 882.349 244.805C880.044 245.317 877.672 246.524 874.687 248.382C872.513 246.555 870.622 245.343 868.436 244.822Z" fill="white" fill-opacity="0.2" stroke="white"/>
<defs>
<linearGradient id="paint0_linear_4_2" x1="24" y1="804" x2="1190.74" y2="-270.623" gradientUnits="userSpaceOnUse">
<stop stop-color="#A60169"/>
<stop offset="1" stop-color="#000B4A"/>
</linearGradient>
</defs>
</svg>
