<svg width="1440" height="1024" viewBox="0 0 1440 1024" fill="none" xmlns="http://www.w3.org/2000/svg">
<rect x="0.5" y="0.5" width="1439" height="1023" fill="url(#paint0_linear_3_25)"/>
<rect x="0.5" y="0.5" width="1439" height="1023" stroke="black"/>
<path d="M1285.79 696.166V694.403C1285.82 688.355 1286.36 683.533 1287.4 679.938C1288.47 676.344 1290.02 673.44 1292.06 671.228C1294.1 669.016 1296.56 667.011 1299.43 665.214C1301.57 663.831 1303.49 662.397 1305.18 660.911C1306.87 659.424 1308.22 657.782 1309.22 655.985C1310.23 654.153 1310.73 652.114 1310.73 649.867C1310.73 647.482 1310.16 645.391 1309.02 643.594C1307.88 641.796 1306.34 640.414 1304.4 639.446C1302.5 638.478 1300.39 637.994 1298.08 637.994C1295.83 637.994 1293.71 638.495 1291.7 639.498C1289.7 640.466 1288.05 641.917 1286.77 643.853C1285.5 645.754 1284.8 648.122 1284.7 650.956H1263.55C1263.72 644.043 1265.38 638.34 1268.52 633.847C1271.67 629.319 1275.84 625.949 1281.02 623.737C1286.2 621.49 1291.92 620.366 1298.18 620.366C1305.06 620.366 1311.14 621.507 1316.43 623.788C1321.72 626.035 1325.87 629.301 1328.87 633.587C1331.88 637.873 1333.38 643.041 1333.38 649.089C1333.38 653.134 1332.71 656.728 1331.36 659.874C1330.05 662.984 1328.2 665.75 1325.82 668.169C1323.43 670.554 1320.61 672.714 1317.36 674.65C1314.63 676.274 1312.39 677.968 1310.62 679.731C1308.9 681.494 1307.6 683.533 1306.74 685.849C1305.91 688.165 1305.47 691.016 1305.44 694.403V696.166H1285.79ZM1296.06 729.348C1292.6 729.348 1289.64 728.138 1287.19 725.719C1284.77 723.265 1283.58 720.327 1283.61 716.905C1283.58 713.518 1284.77 710.614 1287.19 708.195C1289.64 705.775 1292.6 704.565 1296.06 704.565C1299.34 704.565 1302.23 705.775 1304.71 708.195C1307.2 710.614 1308.46 713.518 1308.5 716.905C1308.46 719.186 1307.86 721.277 1306.68 723.178C1305.54 725.045 1304.04 726.548 1302.17 727.689C1300.31 728.795 1298.27 729.348 1296.06 729.348Z" fill="white" fill-opacity="0.17"/>
<ellipse cx="170.123" cy="108.636" rx="4.94688" ry="4.63636" fill="#D9D9D9" fill-opacity="0.43"/>
<ellipse cx="169.875" cy="151.523" rx="3.71016" ry="3.47727" fill="#D9D9D9" fill-opacity="0.43"/>
<rect x="169.134" y="153.145" width="49.1455" height="1.97875" transform="rotate(-90 169.134 153.145)" fill="#976092"/>
<ellipse cx="199.309" cy="113.273" rx="4.94688" ry="4.63636" fill="#D9D9D9" fill-opacity="0.43"/>
<ellipse cx="142.42" cy="120.227" rx="7.42033" ry="6.95455" fill="#D9D9D9" fill-opacity="0.43"/>
<rect x="153.798" y="139.236" width="34.6282" height="1.85455" fill="#976092"/>
<rect width="29.0233" height="1.9618" transform="matrix(0.395869 -0.918307 0.935197 0.354127 186.448 140.582)" fill="#976092"/>
<rect width="17.4143" height="1.95206" transform="matrix(-0.493443 -0.869778 0.895023 -0.44602 153.356 140.451)" fill="#976092"/>
<ellipse cx="4.94687" cy="4.63638" rx="4.94687" ry="4.63638" transform="matrix(-0.999975 -0.00703735 0.00801151 -0.999968 146.378 150.618)" fill="#D9D9D9" fill-opacity="0.43"/>
<ellipse cx="7.4203" cy="6.95457" rx="7.4203" ry="6.95457" transform="matrix(-0.999975 -0.00703735 0.00801151 -0.999968 205.776 146.4)" fill="#D9D9D9" fill-opacity="0.43"/>
<rect width="34.6281" height="1.85455" transform="matrix(-0.999975 -0.00703735 0.00801151 -0.999968 187.186 120.305)" fill="#976092"/>
<rect width="29.0234" height="1.96179" transform="matrix(-0.403214 0.915493 -0.932336 -0.360699 154.548 118.729)" fill="#976092"/>
<rect width="17.4143" height="1.95205" transform="matrix(0.48646 0.873224 -0.898573 0.43971 187.637 119.093)" fill="#976092"/>
<path d="M176.337 842.245V768.83H194.898V842.245H176.337ZM148.91 814.818V796.257H222.325V814.818H148.91Z" fill="white" fill-opacity="0.52"/>
<path d="M226.562 852.782V798.978H240.165V852.782H226.562ZM206.461 832.682V819.079H260.265V832.682H206.461Z" fill="white" fill-opacity="0.08"/>
<path d="M164.429 819.447V825.83H132.055V819.447H164.429Z" fill="white" fill-opacity="0.49"/>
<path d="M1067 65H1250C1252.76 65 1255 67.2386 1255 70V162.109C1255 164.87 1252.76 167.109 1250 167.109H1199.67C1193.59 167.109 1188.67 172.034 1188.67 178.109V213.489L1147.84 170.531C1145.76 168.346 1142.88 167.109 1139.87 167.109H1067C1064.24 167.109 1062 164.87 1062 162.109V70C1062 67.2386 1064.24 65 1067 65Z" fill="white" fill-opacity="0.06" stroke="#989898" stroke-width="6"/>
<path d="M866.897 241.598C864.281 241.09 861.376 241.261 857.5 242.078V211.621C861.093 211.685 863.786 211.987 866.281 212.615C868.893 213.272 871.31 214.292 874.338 215.799L874.636 215.947L874.888 215.729C877.199 213.731 879.413 212.61 882.18 212.03C884.874 211.466 888.107 211.411 892.5 211.593V242.048C889.392 241.252 886.787 241.087 884.063 241.581C881.238 242.092 878.316 243.307 874.6 245.198C871.892 243.335 869.57 242.116 866.897 241.598Z" fill="white" stroke="white"/>
<path d="M868.436 244.822C866.298 244.313 863.937 244.479 860.833 245.27V214.844C863.702 214.911 865.855 215.212 867.847 215.828C869.958 216.48 871.917 217.493 874.382 218.998L874.728 219.21L875.006 218.914C876.884 216.921 878.67 215.817 880.891 215.246C883.044 214.692 885.633 214.632 889.167 214.809V245.231C886.676 244.468 884.562 244.313 882.348 244.805C880.044 245.317 877.671 246.524 874.687 248.382C872.513 246.555 870.622 245.343 868.436 244.822Z" fill="white" fill-opacity="0.2" stroke="white"/>
<defs>
<linearGradient id="paint0_linear_3_25" x1="24" y1="1024" x2="1440" y2="-8.59387e-06" gradientUnits="userSpaceOnUse">
<stop stop-color="#A60169"/>
<stop offset="1" stop-color="#000B4A"/>
</linearGradient>
</defs>
</svg>
